<?xml version="1.0" encoding="UTF-8" standalone="no"?>
<svg
   id="Layer_2"
   data-name="Layer 2"
   width="47.36"
   height="47.36"
   viewBox="0 0 47.36 47.36"
   version="1.1"
   sodipodi:docname="a-pressed.svg"
   inkscape:version="1.3.2 (091e20e, 2023-11-25, custom)"
   xmlns:inkscape="http://www.inkscape.org/namespaces/inkscape"
   xmlns:sodipodi="http://sodipodi.sourceforge.net/DTD/sodipodi-0.dtd"
   xmlns="http://www.w3.org/2000/svg"
   xmlns:svg="http://www.w3.org/2000/svg">
  <sodipodi:namedview
     id="namedview2"
     pagecolor="#ffffff"
     bordercolor="#000000"
     borderopacity="0.25"
     inkscape:showpageshadow="2"
     inkscape:pageopacity="0.0"
     inkscape:pagecheckerboard="0"
     inkscape:deskcolor="#d1d1d1"
     inkscape:zoom="17.166385"
     inkscape:cx="19.98091"
     inkscape:cy="22.864453"
     inkscape:window-width="1920"
     inkscape:window-height="1009"
     inkscape:window-x="2552"
     inkscape:window-y="157"
     inkscape:window-maximized="1"
     inkscape:current-layer="Layer_2" />
  <defs
     id="defs1">
    <style
       id="style1">
      .cls-1 {
        fill: #c64ab5;
      }

      .cls-1, .cls-2 {
        stroke-width: 0px;
      }

      .cls-2 {
        fill: #fff;
      }
    </style>
  </defs>
  <g
     id="Layer_1-2"
     data-name="Layer 1">
    <g
       id="g2">
      <g
         id="A-2">
        <path
           class="cls-2"
           d="m23.69,0c13.08,0,23.68,10.61,23.67,23.69,0,13.08-10.61,23.68-23.69,23.67C10.6,47.35,0,36.75,0,23.68,0,10.6,10.6,0,23.68,0h.01Z"
           id="path1" />
      </g>
      <path
         class="cls-1"
         d="m32.45,38.83l-2.78-7.66h-12.13l-2.64,7.66h-5.48l11.46-30.31h5.59l11.53,30.31h-5.55Zm-8.79-25.75h-.13c-.08.74-.23,1.46-.45,2.17l-4.14,11.68h9.3l-4.17-11.68c-.2-.71-.34-1.44-.41-2.17Z"
         id="path2" />
    </g>
  </g>
  <path
     style="fill:#89bf3f;stroke-width:0.0159614"
     d="m 9.4961922,38.753063 c 4.9e-4,-0.02403 2.5635388,-6.820015 5.6956628,-15.102189 l 5.694773,-15.0585 h 2.788918 2.788917 l 5.728963,15.0585 c 3.150929,8.282174 5.72909,15.07816 5.729245,15.102189 1.55e-4,0.02403 -1.22589,0.04369 -2.724544,0.04369 h -2.724826 l -1.273986,-3.509766 c -0.700693,-1.930372 -1.324493,-3.64739 -1.386223,-3.815597 l -0.112238,-0.30583 -6.097856,3.89e-4 -6.097856,3.89e-4 -1.310701,3.814695 -1.310702,3.814694 -2.694219,5.13e-4 C 10.7077,38.796523 9.4957023,38.77709 9.4961922,38.75306 Z M 28.252891,26.923476 c 0,-0.02631 -0.941284,-2.686029 -2.091743,-5.910482 -1.150459,-3.224453 -2.145701,-6.093021 -2.21165,-6.374595 -0.06595,-0.281575 -0.152806,-0.754433 -0.193017,-1.050797 -0.05668,-0.417744 -0.09351,-0.538844 -0.163861,-0.538844 -0.06986,0 -0.107049,0.117353 -0.161543,0.509717 -0.03894,0.280344 -0.134896,0.75875 -0.213244,1.063124 -0.07835,0.304374 -1.074633,3.182758 -2.213967,6.396408 -1.139334,3.21365 -2.071516,5.86782 -2.071516,5.898155 0,0.03424 1.766801,0.05515 4.66027,0.05515 2.563149,0 4.660271,-0.02153 4.660271,-0.04784 z"
     id="path7" />
  <path
     style="fill:#89bf3f;stroke-width:0.0014108"
     d="m 19.336159,12.613568 c 0.0017,-0.0064 0.350079,-0.929123 0.774188,-2.050558 l 0.771109,-2.0389724 2.793284,-0.00124 2.793285,-0.00124 0.778816,2.0479344 c 0.428349,1.126364 0.778798,2.049672 0.778774,2.051796 -2.3e-5,0.0021 -0.0054,0.0039 -0.01198,0.0039 -0.01116,0 -0.06205,-0.131716 -0.779324,-2.01709 l -0.767387,-2.0170891 -2.790946,-0.00129 -2.790947,-0.00129 -0.0051,0.014164 c -0.0028,0.00779 -0.343893,0.9096902 -0.757981,2.0042221 -0.414088,1.094532 -0.755168,1.996429 -0.757955,2.004217 -0.0037,0.01034 -0.0086,0.01416 -0.018,0.01416 -0.01088,0 -0.01244,-0.0018 -0.0098,-0.01158 z"
     id="path8" />
</svg>
