<?xml version="1.0" encoding="UTF-8" standalone="no"?>
<svg
   id="Layer_2"
   data-name="Layer 2"
   width="47.36"
   height="47.36"
   viewBox="0 0 47.36 47.36"
   version="1.1"
   sodipodi:docname="a.svg"
   inkscape:version="1.3.2 (091e20e, 2023-11-25, custom)"
   xmlns:inkscape="http://www.inkscape.org/namespaces/inkscape"
   xmlns:sodipodi="http://sodipodi.sourceforge.net/DTD/sodipodi-0.dtd"
   xmlns="http://www.w3.org/2000/svg"
   xmlns:svg="http://www.w3.org/2000/svg">
  <sodipodi:namedview
     id="namedview2"
     pagecolor="#ffffff"
     bordercolor="#000000"
     borderopacity="0.25"
     inkscape:showpageshadow="2"
     inkscape:pageopacity="0.0"
     inkscape:pagecheckerboard="0"
     inkscape:deskcolor="#d1d1d1"
     inkscape:zoom="17.166385"
     inkscape:cx="23.650874"
     inkscape:cy="23.68"
     inkscape:window-width="1920"
     inkscape:window-height="1009"
     inkscape:window-x="2552"
     inkscape:window-y="157"
     inkscape:window-maximized="1"
     inkscape:current-layer="Layer_2" />
  <defs
     id="defs1">
    <style
       id="style1">
      .cls-1 {
        fill: #39b54a;
      }

      .cls-1, .cls-2 {
        stroke-width: 0px;
      }

      .cls-2 {
        fill: #141414;
      }
    </style>
  </defs>
  <g
     id="Layer_1-2"
     data-name="Layer 1">
    <g
       id="g2">
      <g
         id="A">
        <path
           class="cls-2"
           d="m23.69,0c13.08,0,23.68,10.61,23.67,23.69,0,13.08-10.61,23.68-23.69,23.67C10.6,47.35,0,36.75,0,23.68,0,10.6,10.61,0,23.69,0Z"
           id="path1" />
      </g>
      <path
         class="cls-1"
         d="m32.45,38.83l-2.78-7.66h-12.13l-2.64,7.66h-5.48l11.46-30.3h5.59l11.53,30.3h-5.55Zm-8.79-25.75h-.13c-.08.74-.23,1.46-.45,2.17l-4.14,11.68h9.3l-4.17-11.68c-.21-.71-.34-1.44-.41-2.17Z"
         id="path2" />
    </g>
  </g>
  <path
     style="fill:#89bf3f;stroke-width:0.0159614"
     d="M 22.602313,47.298708 C 18.168894,47.105341 13.689961,45.576598 10.107003,43.033827 8.4647053,41.868313 6.4285119,39.965311 5.2928861,38.534613 2.047562,34.446047 0.24788047,29.691285 0.06728437,24.728561 -0.08584861,20.520516 0.72088405,16.725321 2.5403072,13.094469 3.7062157,10.767774 5.0412471,8.9343989 6.9876209,6.9870506 8.4960392,5.4778765 9.7713246,4.4683245 11.460049,3.4465502 16.418598,0.44634636 22.306832,-0.62259457 28.041006,0.43646883 31.590174,1.0919763 35.01181,2.6081352 37.949105,4.826841 c 5.599164,4.2293651 9.09059,10.882513 9.343463,17.804598 0.187818,5.141267 -1.069076,9.742013 -3.815934,13.967872 -2.929596,4.506991 -7.380702,7.909472 -12.544087,9.588855 -1.884525,0.612939 -4.045602,1.014376 -5.84577,1.085896 -0.421294,0.01674 -0.936381,0.03856 -1.144636,0.0485 -0.208256,0.0099 -0.811179,-7.98e-4 -1.339828,-0.02386 z m -6.359185,-12.27413 1.310009,-3.801301 6.057876,0.01483 6.057874,0.01483 1.374561,3.800084 1.37456,3.800084 2.80926,9.5e-4 2.809261,9.49e-4 -0.167401,-0.451464 C 37.777058,38.155238 35.232275,31.464109 32.214055,23.534367 29.195835,15.604625 26.67466,8.9787827 26.611444,8.8102726 l -0.114938,-0.306382 -2.825418,0.015115 -2.825418,0.015115 -5.607347,14.8254864 c -3.084042,8.154017 -5.6638156,14.97647 -5.7328318,15.161007 l -0.1254837,0.335522 2.7765555,-0.01513 2.776555,-0.01513 z"
     id="path3" />
  <path
     style="fill:#89bf3f;stroke-width:0.0159614"
     d="m 19.005251,26.840246 c 0.602223,-1.617351 4.17604,-11.826381 4.271314,-12.201511 0.07491,-0.29495 0.167533,-0.760249 0.205829,-1.033998 0.0383,-0.273749 0.09187,-0.497726 0.119054,-0.497726 0.02718,0 0.04943,0.0621 0.04943,0.138003 0,0.185983 0.156869,1.083876 0.271032,1.551345 0.06532,0.26748 3.883965,11.071111 4.254311,12.036218 0.02612,0.06806 -0.681427,0.08049 -4.583597,0.08049 -3.66721,0 -4.608916,-0.01495 -4.587369,-0.07282 z"
     id="path4" />
  <path
     style="fill:#141414;stroke-width:0.0159614;fill-opacity:1"
     d="m 9.496159,38.753063 c 4.716e-4,-0.02403 2.564362,-6.820015 5.697535,-15.102189 l 5.696678,-15.0585 h 2.785329 2.785329 l 5.73064,15.0585 c 3.151852,8.282174 5.730784,15.07816 5.730961,15.102189 1.77e-4,0.02403 -1.22585,0.04369 -2.724504,0.04369 h -2.724826 l -1.273986,-3.509766 c -0.700693,-1.930372 -1.324493,-3.64739 -1.386223,-3.815597 l -0.112238,-0.30583 -6.097856,3.89e-4 -6.097856,3.89e-4 -1.310701,3.814695 -1.310702,3.814694 -2.694219,5.13e-4 C 10.7077,38.796523 9.4956873,38.77709 9.496159,38.75306 Z M 28.252891,26.923476 c 0,-0.02631 -0.943652,-2.692665 -2.097005,-5.92523 -2.08155,-5.834071 -2.327182,-6.599989 -2.423318,-7.556278 -0.03113,-0.309623 -0.05985,-0.39321 -0.135114,-0.39321 -0.07593,0 -0.110138,0.10479 -0.166377,0.509717 -0.03894,0.280344 -0.134781,0.75875 -0.212989,1.063124 -0.07821,0.304374 -1.074493,3.182462 -2.213967,6.39575 -1.139474,3.213289 -2.071771,5.867459 -2.071771,5.898155 0,0.03512 1.728159,0.05581 4.66027,0.05581 2.563149,0 4.660271,-0.02153 4.660271,-0.04784 z"
     id="path5" />
  <path
     style="fill:#141414;fill-opacity:1;stroke-width:0.0159614"
     d="m 10.791439,38.753127 c -0.680836,-0.0093 -1.2378841,-0.02659 -1.2378841,-0.03839 0,-0.04615 2.5630311,-6.839428 9.3977821,-24.908689 l 1.950054,-5.1554246 2.766375,-0.015124 c 2.59438,-0.014184 2.768882,-0.00875 2.806698,0.08738 0.07481,0.1901721 5.969698,15.6775246 7.644267,20.0834146 2.849854,7.498133 3.750688,9.888646 3.733053,9.906281 -0.0094,0.0094 -1.218439,0.0256 -2.686808,0.03605 l -2.66976,0.019 -1.378432,-3.801237 -1.378432,-3.801236 -6.138048,0.01477 -6.138048,0.01477 -1.158034,3.378696 c -0.636919,1.858283 -1.226298,3.568748 -1.309732,3.801033 l -0.151697,0.422337 -1.406735,-0.01334 c -0.773704,-0.0073 -1.963782,-0.02097 -2.644619,-0.03028 z M 28.252891,26.894849 c 0,-0.04206 -0.343254,-1.044744 -0.762787,-2.228192 -3.580405,-10.099867 -3.575535,-10.085141 -3.749739,-11.341196 -0.03002,-0.21646 -0.06182,-0.276703 -0.146051,-0.276703 -0.08851,0 -0.119903,0.07517 -0.176387,0.422337 -0.185914,1.142708 -0.118562,0.940258 -3.60641,10.840248 -0.483542,1.372499 -0.879167,2.532469 -0.879167,2.577712 0,0.07016 0.685534,0.08226 4.66027,0.08226 3.808045,0 4.660271,-0.01398 4.660271,-0.07647 z"
     id="path6" />
</svg>
