<?xml version="1.0" encoding="UTF-8" standalone="no"?>
<svg
   id="Layer_2"
   data-name="Layer 2"
   width="47.38"
   height="47.38"
   viewBox="0 0 47.38 47.38"
   version="1.1"
   sodipodi:docname="b-pressed.svg"
   inkscape:version="1.3.2 (091e20e, 2023-11-25, custom)"
   xmlns:inkscape="http://www.inkscape.org/namespaces/inkscape"
   xmlns:sodipodi="http://sodipodi.sourceforge.net/DTD/sodipodi-0.dtd"
   xmlns="http://www.w3.org/2000/svg"
   xmlns:svg="http://www.w3.org/2000/svg">
  <sodipodi:namedview
     id="namedview2"
     pagecolor="#ffffff"
     bordercolor="#000000"
     borderopacity="0.25"
     inkscape:showpageshadow="2"
     inkscape:pageopacity="0.0"
     inkscape:pagecheckerboard="0"
     inkscape:deskcolor="#d1d1d1"
     inkscape:zoom="17.159138"
     inkscape:cx="23.660862"
     inkscape:cy="23.690001"
     inkscape:window-width="1920"
     inkscape:window-height="1009"
     inkscape:window-x="2552"
     inkscape:window-y="157"
     inkscape:window-maximized="1"
     inkscape:current-layer="Layer_2" />
  <defs
     id="defs1">
    <style
       id="style1">
      .cls-1 {
        fill: #3ed8d2;
      }

      .cls-1, .cls-2 {
        stroke-width: 0px;
      }

      .cls-2 {
        fill: #fff;
      }
    </style>
  </defs>
  <g
     id="Layer_1-2"
     data-name="Layer 1">
    <g
       id="g2">
      <g
         id="B-2">
        <path
           class="cls-2"
           d="m23.69,0c13.08,0,23.69,10.61,23.69,23.69s-10.61,23.69-23.69,23.69S0,36.77,0,23.69h0C0,10.61,10.61,0,23.69,0Z"
           id="path1" />
      </g>
      <path
         class="cls-1"
         d="m33.9,30.01c.07,2.47-1.01,4.83-2.93,6.39-2.15,1.69-4.83,2.56-7.56,2.44h-9.91V8.53h9.57c2.43-.12,4.84.54,6.87,1.89,1.64,1.17,2.59,3.08,2.52,5.09.02,1.58-.51,3.11-1.5,4.34-1.02,1.29-2.42,2.22-4,2.67v.11c1.92.15,3.72,1,5.07,2.37,1.25,1.37,1.92,3.16,1.87,5.01Zm-6.77-13.54c.05-1.09-.45-2.14-1.33-2.79-1.2-.74-2.6-1.09-4-1h-3.26v8.38h3.23c1.43.1,2.86-.33,4-1.2.94-.87,1.44-2.11,1.36-3.39Zm1.48,13.41c.06-1.32-.51-2.59-1.55-3.41-1.38-.91-3.03-1.33-4.68-1.21h-3.84v9.42h4.24c1.52.09,3.03-.38,4.24-1.31,1.05-.85,1.64-2.14,1.59-3.49Z"
         id="path2" />
    </g>
  </g>
  <path
     style="fill:#e52128;stroke-width:0.0159682"
     d="M 13.520492,23.690001 V 8.5668637 h 5.505266 c 4.677019,0 5.603613,0.013717 6.158965,0.091175 1.31746,0.1837539 2.574892,0.5925676 3.779435,1.2287624 1.432721,0.7567099 2.2735,1.5982489 2.882127,2.8847309 0.485799,1.026852 0.642302,1.938908 0.554456,3.23121 -0.0761,1.119471 -0.339798,2.017951 -0.853625,2.908464 -0.911831,1.580294 -2.416011,2.820805 -4.171033,3.439889 -0.443161,0.156325 -0.603099,0.319041 -0.313593,0.319041 0.311298,0 1.210211,0.192532 1.765305,0.378098 2.650854,0.886173 4.482743,2.957994 4.941502,5.588715 0.115618,0.663 0.117875,2.106073 0.0044,2.805761 -0.241755,1.490518 -0.843907,2.786074 -1.844145,3.967755 -0.728207,0.860305 -1.717979,1.586046 -3.052801,2.238437 -0.881336,0.430751 -1.372829,0.611995 -2.275937,0.83928 -1.250063,0.314602 -1.489586,0.324955 -7.517749,0.324955 h -5.562563 z m 10.316732,10.98308 c 1.429604,-0.175424 2.653291,-0.731187 3.523637,-1.600334 0.533725,-0.53299 0.840359,-1.021657 1.060493,-1.690053 0.129685,-0.393765 0.157605,-0.599503 0.179645,-1.323791 0.03191,-1.048571 -0.0561,-1.513713 -0.426308,-2.253249 -0.581574,-1.16175 -1.636763,-1.89657 -3.406548,-2.372276 l -0.611919,-0.164479 -2.811912,-0.02081 -2.811913,-0.02081 v 4.753204 4.753204 h 2.405495 c 1.323023,0 2.627722,-0.02727 2.89933,-0.0606 z M 23.66779,20.909204 c 1.740835,-0.470949 2.819315,-1.411093 3.294786,-2.872168 0.123067,-0.37817 0.156912,-0.614814 0.179202,-1.252977 0.04327,-1.238717 -0.18996,-1.966371 -0.867127,-2.705379 -0.552162,-0.602587 -1.704803,-1.128901 -2.94656,-1.345446 -0.381035,-0.06645 -1.004325,-0.08691 -2.64704,-0.08691 h -2.148652 v 4.229348 4.229349 l 2.287411,-0.02208 c 2.247089,-0.02169 2.297292,-0.02476 2.84798,-0.173733 z"
     id="path3" />
</svg>
