<?xml version="1.0" encoding="UTF-8" standalone="no"?>
<svg
   id="Layer_2"
   data-name="Layer 2"
   width="47.38"
   height="47.38"
   viewBox="0 0 47.38 47.38"
   version="1.1"
   sodipodi:docname="b.svg"
   inkscape:version="1.3.2 (091e20e, 2023-11-25, custom)"
   xmlns:inkscape="http://www.inkscape.org/namespaces/inkscape"
   xmlns:sodipodi="http://sodipodi.sourceforge.net/DTD/sodipodi-0.dtd"
   xmlns="http://www.w3.org/2000/svg"
   xmlns:svg="http://www.w3.org/2000/svg">
  <sodipodi:namedview
     id="namedview2"
     pagecolor="#ffffff"
     bordercolor="#000000"
     borderopacity="0.25"
     inkscape:showpageshadow="2"
     inkscape:pageopacity="0.0"
     inkscape:pagecheckerboard="0"
     inkscape:deskcolor="#d1d1d1"
     inkscape:zoom="12.133343"
     inkscape:cx="33.708764"
     inkscape:cy="21.057675"
     inkscape:window-width="1920"
     inkscape:window-height="1009"
     inkscape:window-x="2552"
     inkscape:window-y="157"
     inkscape:window-maximized="1"
     inkscape:current-layer="Layer_2" />
  <defs
     id="defs1">
    <style
       id="style1">
      .cls-1 {
        fill: #141414;
      }

      .cls-1, .cls-2 {
        stroke-width: 0px;
      }

      .cls-2 {
        fill: #c1272d;
      }
    </style>
  </defs>
  <g
     id="Layer_1-2"
     data-name="Layer 1">
    <g
       id="g2">
      <g
         id="B">
        <path
           class="cls-1"
           d="m23.69,0c13.08,0,23.69,10.61,23.69,23.69s-10.61,23.69-23.69,23.69S0,36.77,0,23.69C0,10.61,10.61,0,23.69,0Z"
           id="path1" />
      </g>
      <path
         class="cls-2"
         d="m33.9,30c.07,2.47-1.01,4.83-2.93,6.39-2.15,1.69-4.83,2.55-7.56,2.43h-9.91V8.53h9.57c2.43-.12,4.84.54,6.87,1.88,1.63,1.17,2.58,3.08,2.52,5.09.02,1.58-.51,3.12-1.5,4.35-1.02,1.28-2.42,2.22-4,2.67v.09c1.93.16,3.75,1.01,5.11,2.39,1.22,1.37,1.88,3.16,1.83,5Zm-6.77-13.53c.05-1.09-.45-2.14-1.33-2.79-1.2-.74-2.6-1.09-4-1h-3.26v8.39h3.23c1.43.1,2.86-.33,4-1.2.94-.87,1.44-2.12,1.36-3.4Zm1.48,13.4c.06-1.32-.52-2.59-1.55-3.41-1.39-.9-3.03-1.32-4.68-1.2h-3.84v9.41h4.24c1.52.09,3.03-.38,4.24-1.31,1.05-.85,1.64-2.14,1.59-3.49Z"
         id="path2" />
    </g>
  </g>
  <path
     style="fill:#141414;fill-opacity:1;stroke-width:0.0159682"
     d="M 13.520492,23.692872 V 8.5668637 h 5.505266 c 6.033269,0 6.121579,0.00416 7.470922,0.3520753 1.452963,0.3746306 2.999529,1.129597 3.914791,1.911031 0.667224,0.569664 1.400187,1.676306 1.69612,2.560836 0.384082,1.148006 0.418696,2.683816 0.08895,3.946894 -0.581982,2.229285 -2.45127,4.172514 -4.822552,5.013313 -0.474239,0.168154 -0.550487,0.278431 -0.211964,0.30656 0.726076,0.06033 1.812412,0.37273 2.598432,0.747231 2.054633,0.978938 3.357118,2.551398 3.904926,4.714323 0.184297,0.727667 0.252136,2.289583 0.136304,3.138239 -0.520258,3.811729 -3.560193,6.57558 -8.16019,7.41909 -0.495845,0.09092 -1.149034,0.103489 -6.336919,0.121899 l -5.78409,0.02053 z m 10.828749,10.88879 c 1.283136,-0.228353 2.613352,-0.962405 3.315219,-1.829435 0.672444,-0.830683 0.95003,-1.673571 0.95003,-2.88476 0,-0.92969 -0.114634,-1.443993 -0.47785,-2.143856 -0.575039,-1.108015 -1.629224,-1.820705 -3.397636,-2.297002 l -0.58278,-0.156963 -2.811912,-0.02163 -2.811913,-0.02163 v 4.723814 4.723814 l 2.229133,0.01771 c 2.550099,0.02026 2.918994,0.0089 3.587709,-0.110064 z M 23.232609,21.00935 c 0.916746,-0.175402 1.887799,-0.595803 2.487833,-1.077065 0.312577,-0.250704 0.757306,-0.802819 0.944956,-1.173129 0.332011,-0.655192 0.44997,-1.142933 0.477671,-1.975097 0.04111,-1.234971 -0.19721,-1.972874 -0.876658,-2.714372 -0.29104,-0.317618 -0.445534,-0.425654 -0.994273,-0.69528 -0.7089,-0.348322 -1.404302,-0.568432 -2.102812,-0.665586 -0.251507,-0.03498 -1.371207,-0.0625 -2.543137,-0.0625 h -2.09379 v 4.225153 4.225154 h 2.12202 c 1.642844,0 2.225028,-0.01971 2.57819,-0.08728 z"
     id="path10" />
  <path
     style="fill:#e52128;fill-opacity:1;stroke-width:0.0159682"
     d="M 22.611858,47.318683 C 17.595959,47.099911 12.901247,45.31716 8.8291146,42.08488 7.9405245,41.379556 6.0204071,39.461388 5.2915305,38.550886 0.94681449,33.123536 -0.79707953,26.302242 0.41210003,19.464847 1.083627,15.667648 2.7838384,11.961684 5.2915305,8.8291146 6.0114935,7.9297483 7.9297483,6.0114935 8.8291146,5.2915305 14.256712,0.94661681 21.077448,-0.79713454 27.915154,0.41210003 31.712353,1.083627 35.418317,2.7838384 38.550886,5.2915305 c 0.899367,0.719963 2.817622,2.6382178 3.537584,3.5375841 2.987601,3.7320624 4.743373,8.0799794 5.173047,12.8103004 0.08033,0.88436 0.08059,3.21255 4.51e-4,4.101171 -0.428636,4.753168 -2.252881,9.220716 -5.290355,12.955995 -0.679503,0.835607 -2.569171,2.709061 -3.420727,3.391376 -2.268866,1.817945 -4.683998,3.138632 -7.388854,4.040511 -2.027851,0.676146 -4.183794,1.090688 -6.060805,1.165364 -0.423593,0.01685 -0.940632,0.03877 -1.148976,0.04872 -0.208343,0.0099 -0.81152,-7.98e-4 -1.340393,-0.02387 z m 3.009518,-8.581655 c 2.423151,-0.425147 4.523445,-1.443064 5.967127,-2.891999 1.220219,-1.224659 1.987338,-2.739813 2.244514,-4.433196 0.111192,-0.732144 0.108918,-2.117647 -0.0046,-2.775139 -0.258085,-1.495423 -0.974589,-2.911723 -1.946792,-3.84819 -0.782974,-0.754193 -1.826939,-1.393651 -2.877394,-1.762484 -0.550322,-0.193227 -1.538791,-0.414162 -1.852977,-0.414162 -0.251743,0 -0.163788,-0.07557 0.239353,-0.205656 1.719679,-0.554899 3.474421,-2.035024 4.303749,-3.63021 0.548986,-1.055956 0.766859,-2.002203 0.765669,-3.325391 -0.0014,-1.56404 -0.374659,-2.712838 -1.25178,-3.852723 C 30.068588,10.116809 27.743711,8.9627384 25.159737,8.5953948 24.672841,8.5261768 23.55091,8.5105268 19.013146,8.5096538 l -5.550978,-0.00107 v 15.1845092 15.18451 l 5.813229,-0.02356 c 5.000871,-0.02027 5.887671,-0.03662 6.345933,-0.11702 z"
     id="path11" />
  <path
     style="fill:#e52128;fill-opacity:1;stroke-width:0.0159682"
     d="m 18.590677,16.875143 v -4.170542 h 2.119513 c 2.336344,0 2.728637,0.03787 3.674252,0.354678 1.506547,0.50474 2.344642,1.312406 2.632254,2.536683 0.121802,0.518477 0.08612,1.817107 -0.06306,2.295379 -0.39579,1.268864 -1.217766,2.164995 -2.460305,2.682265 -1.000377,0.416458 -1.089671,0.427596 -3.615243,0.450938 l -2.287411,0.02114 z"
     id="path12" />
  <path
     style="fill:#e52128;fill-opacity:1;stroke-width:0.274"
     id="path13"
     d="m 22.445252,25.253763 c 0.02629,0.0044 0.05204,0.01128 0.07842,0.01538 0.0243,0.0035 0.04888,0.0038 0.07337,0.0041 0.02293,1.57e-4 0.04586,5.7e-5 0.06879,1.6e-5 0.02329,-4.2e-5 0.04657,-5.5e-5 0.06986,-6.2e-5 0.02445,-5e-6 0.04889,-5e-6 0.07334,-4e-6 0.0242,0 0.04841,0 0.07261,0 0.02404,0 0.04808,0 0.07213,0 0.02864,4.3e-4 0.05707,0.0051 0.08562,0.0075 0.02614,0.0021 0.05236,0.0026 0.07856,0.0028 0.02966,1.46e-4 0.05932,8.7e-5 0.08897,6.2e-5 0.03106,-2.9e-5 0.06213,-3.5e-5 0.09319,-4e-5 0.03583,-4e-6 0.07166,-4e-6 0.107495,-4e-6 0.03182,0 0.06365,0 0.09547,1e-6 0.02609,1.88e-4 0.05219,-7.75e-4 0.07822,0.0012 0.02933,0.0032 0.05866,0.0062 0.08812,0.0079 0.01126,5.98e-4 0.02253,8.13e-4 0.03381,0.001 0.0027,5e-5 0.0027,-0.0037 7.1e-5,-0.0038 v 0 c -0.01122,-2.11e-4 -0.02245,-4.24e-4 -0.03366,-0.001 -0.02943,-0.0017 -0.05874,-0.0047 -0.08805,-0.0079 -0.02613,-0.002 -0.05231,-0.0011 -0.07851,-0.0012 -0.03182,0 -0.06365,0 -0.09547,0 -0.03583,0 -0.07166,-1e-6 -0.107495,3e-6 -0.03107,5e-6 -0.06213,1.1e-5 -0.0932,4e-5 -0.02965,2.5e-5 -0.05929,8.5e-5 -0.08894,-6.1e-5 -0.02611,-2.27e-4 -0.05224,-7.65e-4 -0.07829,-0.0028 -0.02866,-0.0024 -0.05718,-0.0071 -0.08593,-0.0075 -0.02404,0 -0.04809,0 -0.07213,0 -0.0242,0 -0.04841,-10e-7 -0.07261,-10e-7 -0.02445,0 -0.04889,-1e-6 -0.07334,4e-6 -0.02329,7e-6 -0.04658,2.1e-5 -0.06987,6.3e-5 -0.02291,4e-5 -0.04583,1.4e-4 -0.06874,-1.6e-5 -0.02432,-2.9e-4 -0.04872,-5.85e-4 -0.07284,-0.004 -0.02636,-0.0041 -0.0521,-0.01096 -0.07838,-0.01537 -0.0026,-4.4e-4 -0.0033,0.0033 -6.21e-4,0.0037 z" />
  <path
     style="fill:#e52128;fill-opacity:1;stroke-width:0.274"
     id="path14"
     d="m 28.622579,29.622014 c 0.0042,-0.02602 0.0065,-0.0523 0.0079,-0.07861 2.8e-4,-0.02196 0.0028,-0.04417 -1.7e-5,-0.06602 -0.0016,-0.01699 -0.0085,-0.03138 -0.01737,-0.04558 -0.0093,-0.01539 -0.0155,-0.03165 -0.01913,-0.04923 -0.0029,-0.02031 -0.0031,-0.04064 -0.0066,-0.06086 -0.004,-0.02035 -0.0057,-0.04102 -0.0066,-0.0617 -0.002,-0.01386 -0.0047,-0.02759 -0.0069,-0.04143 -4.08e-4,-0.0026 -0.0041,-0.0021 -0.0037,5.78e-4 v 0 c 0.0021,0.01371 0.0048,0.0273 0.0068,0.04103 9.47e-4,0.02085 0.0026,0.04167 0.0067,0.06218 0.0035,0.02026 0.0037,0.04064 0.0066,0.06098 0.0037,0.01801 0.01005,0.0347 0.01963,0.05047 0.0086,0.01375 0.01526,0.0276 0.01682,0.04407 0.0029,0.0216 1.87e-4,0.0436 -8e-6,0.06532 -0.0015,0.02617 -0.0037,0.05231 -0.0079,0.0782 -4.4e-4,0.0026 0.0033,0.0033 0.0037,6.22e-4 z" />
  <path
     style="fill:#e52128;fill-opacity:1;stroke-width:0.274"
     id="path15"
     d="m 28.591672,30.580117 c 0.0042,-0.02602 0.0065,-0.0523 0.0079,-0.07861 0.0011,-0.02232 0.0012,-0.04466 0.0012,-0.067 1.2e-5,-0.02063 -2.7e-5,-0.04125 -4.6e-5,-0.06188 -1.7e-5,-0.02058 -2e-5,-0.04116 -2.2e-5,-0.06174 -1e-6,-0.02341 -1e-6,-0.04683 -1e-6,-0.07024 1e-6,-0.02124 1e-6,-0.04248 1e-6,-0.06372 0,-0.0206 0,-0.0412 0,-0.0618 8.5e-5,-0.01978 0.0052,-0.03912 0.0075,-0.05876 6.27e-4,-0.02172 0.0056,-0.04284 0.009,-0.06422 0.0038,-0.02266 0.0025,-0.04571 0.0053,-0.06843 0.0043,-0.02333 0.0067,-0.04687 0.0081,-0.07054 0.0043,-0.02295 0.0078,-0.04594 0.0096,-0.06922 0.0017,-0.02466 0.0018,-0.04938 0.0019,-0.07409 4.5e-5,-0.02573 -5e-6,-0.05146 -3.2e-5,-0.07719 0.0014,-0.02166 -0.0011,-0.04273 -0.0047,-0.06401 -0.0033,-0.02302 -0.0047,-0.04612 -0.0082,-0.06911 -0.004,-0.02513 -0.0052,-0.05046 -0.01005,-0.07545 -0.0077,-0.01971 -0.01104,-0.04065 -0.0171,-0.06078 -0.0064,-0.01994 -0.0089,-0.04071 -0.01042,-0.0615 -0.0017,-0.02629 -0.0064,-0.05225 -0.0086,-0.07853 -0.001,-0.02588 -0.007,-0.05117 -0.0102,-0.07681 -0.0012,-0.03085 -0.0073,-0.06108 -0.015,-0.0909 -0.01095,-0.04476 -0.0259,-0.08844 -0.04097,-0.13194 -8.75e-4,-0.0025 -0.0044,-0.0013 -0.0036,0.0012 v 0 c 0.01504,0.04341 0.02995,0.08699 0.04088,0.131644 0.0076,0.02967 0.01374,0.05974 0.01491,0.09043 0.0032,0.02559 0.0092,0.05083 0.01018,0.07666 0.0023,0.02626 0.0069,0.05221 0.0086,0.07848 0.0015,0.02107 0.0041,0.04211 0.01057,0.06232 0.0061,0.01999 0.0093,0.04084 0.01701,0.06041 0.0049,0.02494 0.006,0.05023 0.01003,0.07531 0.0036,0.02301 0.0049,0.04612 0.0082,0.06915 0.0035,0.02108 0.0061,0.04193 0.0047,0.06339 2.7e-5,0.02572 7.8e-5,0.05145 3.3e-5,0.07717 -9.3e-5,0.02461 -1.98e-4,0.04924 -0.0019,0.07381 -0.0018,0.02331 -0.0053,0.04631 -0.0096,0.0693 -0.0013,0.02359 -0.0037,0.04705 -0.0081,0.0703 -0.0027,0.02268 -0.0015,0.04568 -0.0052,0.0683 -0.0034,0.02143 -0.0084,0.04259 -0.009,0.06436 -0.0023,0.01979 -0.0074,0.03927 -0.0075,0.0592 0,0.0206 0,0.0412 0,0.0618 0,0.02124 0,0.04248 0,0.06372 0,0.02341 -1e-6,0.04683 10e-7,0.07024 1e-6,0.02058 4e-6,0.04116 2.2e-5,0.06174 1.9e-5,0.02062 5.7e-5,0.04125 4.6e-5,0.06187 -5.5e-5,0.02227 -1.43e-4,0.04455 -0.0012,0.0668 -0.0015,0.02617 -0.0037,0.05231 -0.0079,0.0782 -4.39e-4,0.0026 0.0033,0.0033 0.0037,6.21e-4 z" />
  <path
     style="fill:#e52128;fill-opacity:1;stroke-width:0.0056456"
     d="m 20.743458,34.661717 -2.199517,-0.0053 V 29.95657 25.256724 l 2.261331,0.01419 c 2.98682,0.01874 2.971395,0.01835 3.36242,0.08362 0.917738,0.153183 1.76954,0.459359 2.576792,0.926214 0.305809,0.176858 0.4049,0.252911 0.655247,0.502909 0.387244,0.386702 0.712599,0.881573 0.9113,1.386103 0.105696,0.268376 0.23292,0.723182 0.20531,0.733953 -0.0085,0.0033 -0.0037,0.04968 0.01076,0.103022 0.08702,0.321973 0.09091,1.297728 0.007,1.765947 -0.143167,0.799235 -0.492526,1.510586 -1.046054,2.12994 -0.386309,0.432248 -1.06962,0.904431 -1.744735,1.205649 -0.555575,0.247883 -1.098743,0.407067 -1.691436,0.495701 -0.260034,0.03889 -0.755974,0.07421 -0.954407,0.06798 -0.08499,-0.0027 -1.144316,-0.0073 -2.354051,-0.01019 z"
     id="path16" />
  <path
     style="fill:#141414;fill-opacity:1;stroke-width:0.0159682"
     d="M 13.520492,23.684533 V 8.5668637 l 2.870191,0.00425 c 5.033521,0.00746 8.865664,0.08896 9.368186,0.1992393 1.809897,0.3971867 3.684334,1.245763 4.648061,2.104224 0.863917,0.769552 1.636377,2.116071 1.844071,3.214499 0.446519,2.361506 -0.208962,4.58957 -1.84012,6.254809 -0.813012,0.83 -1.709978,1.441157 -2.683815,1.828646 -0.893184,0.355398 -0.97735,0.456461 -0.438335,0.526338 0.461631,0.05984 1.242898,0.257722 1.742838,0.441421 2.552788,0.938004 4.278385,2.943531 4.683907,5.443738 0.129441,0.798053 0.113888,2.481908 -0.02918,3.159655 -0.224057,1.061383 -0.63692,2.034847 -1.243394,2.931715 -0.431147,0.637589 -1.524835,1.702905 -2.225764,2.168024 -1.166716,0.774203 -2.650618,1.390152 -4.12932,1.714028 -0.76602,0.16778 -1.311865,0.182405 -8.240182,0.220782 l -4.327141,0.02397 z m 10.310477,10.988559 c 2.174296,-0.223125 4.012323,-1.508064 4.569744,-3.194645 0.232466,-0.703368 0.312085,-1.735497 0.188928,-2.449151 -0.10177,-0.589729 -0.339505,-1.223339 -0.613913,-1.636203 -0.22156,-0.333352 -0.718412,-0.841104 -1.040914,-1.063752 -0.43635,-0.301247 -1.295045,-0.671312 -2.050115,-0.883523 l -0.728475,-0.204737 -2.811913,-0.01793 -2.811913,-0.01793 1e-6,4.731568 v 4.731569 l 0.218542,0.02286 c 0.498923,0.05219 4.535152,0.03778 5.080028,-0.01813 z M 23.806557,20.90229 c 0.637575,-0.195438 1.476061,-0.59457 1.849054,-0.880179 0.643463,-0.492714 1.238486,-1.470337 1.41066,-2.317716 0.13206,-0.649954 0.120725,-1.718968 -0.02424,-2.285764 -0.295024,-1.153533 -1.085612,-1.892468 -2.587358,-2.418312 -0.912392,-0.319479 -1.27467,-0.353996 -3.715347,-0.353996 h -2.20693 v 4.228709 4.22871 l 2.374828,-0.02034 2.374828,-0.02034 z"
     id="path17" />
  <path
     style="fill:#141414;fill-opacity:1;stroke-width:0.0159682"
     d="M 13.520492,23.67521 V 8.5482998 l 5.4927,0.041457 c 3.020985,0.022801 5.761961,0.06689 6.091058,0.097975 1.443681,0.1363624 3.463711,0.8813386 4.740118,1.7481302 0.791404,0.537432 1.440961,1.309322 1.937962,2.302945 0.337941,0.675623 0.488104,1.220782 0.572487,2.078371 0.245985,2.499979 -0.820251,4.836029 -2.914747,6.386019 -0.607516,0.449579 -1.058293,0.702686 -1.79343,1.00699 -0.62002,0.256653 -0.804917,0.376052 -0.659711,0.426015 0.04576,0.01574 0.322586,0.06861 0.615175,0.117469 1.022563,0.170773 2.34064,0.694896 3.17947,1.264289 1.424675,0.967063 2.424831,2.399658 2.851099,4.083836 0.176144,0.69594 0.225297,2.754962 0.08389,3.514011 -0.30089,1.615088 -1.022239,2.957123 -2.240743,4.16879 -0.764484,0.760196 -1.475706,1.264879 -2.505389,1.777824 -0.761876,0.379536 -2.087362,0.832048 -2.978447,1.016822 -0.721913,0.149695 -1.236839,0.162458 -8.027792,0.19898 l -4.443697,0.0239 z m 10.310477,10.997882 c 2.082963,-0.213752 3.876286,-1.418143 4.508874,-3.028147 0.208812,-0.531449 0.28723,-1.025892 0.291148,-1.835756 0.0041,-0.841406 -0.09695,-1.309259 -0.434131,-2.010591 -0.19535,-0.406324 -0.328548,-0.584401 -0.741041,-0.990725 -0.608962,-0.599855 -1.103698,-0.876542 -2.26109,-1.26454 -0.936941,-0.314096 -0.729399,-0.298598 -4.34578,-0.324526 l -2.31655,-0.01661 v 4.733082 4.733084 l 0.218542,0.02286 c 0.498923,0.05219 4.535152,0.03778 5.080028,-0.01813 z M 23.350876,21.005185 c 1.150606,-0.237664 2.219564,-0.798567 2.774866,-1.456026 0.71341,-0.844655 0.97665,-1.537559 1.018424,-2.680717 0.03416,-0.934667 -0.04647,-1.455419 -0.310691,-2.006759 -0.212133,-0.442647 -0.650864,-0.952322 -1.066167,-1.238566 -0.342378,-0.235982 -1.203438,-0.603805 -1.844013,-0.787717 -0.51926,-0.149082 -0.549837,-0.150884 -2.95779,-0.174338 l -2.433106,-0.0237 v 4.229633 4.229633 h 2.187881 c 1.76067,0 2.274327,-0.01786 2.630596,-0.09145 z"
     id="path18" />
</svg>
