<?xml version="1.0" encoding="UTF-8" standalone="no"?>
<svg
   id="Layer_2"
   data-name="Layer 2"
   width="83.38"
   height="83.38"
   viewBox="0 0 83.38 83.38"
   version="1.1"
   sodipodi:docname="stick.svg"
   inkscape:version="1.3.2 (091e20e, 2023-11-25, custom)"
   xmlns:inkscape="http://www.inkscape.org/namespaces/inkscape"
   xmlns:sodipodi="http://sodipodi.sourceforge.net/DTD/sodipodi-0.dtd"
   xmlns="http://www.w3.org/2000/svg"
   xmlns:svg="http://www.w3.org/2000/svg">
  <sodipodi:namedview
     id="namedview7"
     pagecolor="#ffffff"
     bordercolor="#000000"
     borderopacity="0.25"
     inkscape:showpageshadow="2"
     inkscape:pageopacity="0.0"
     inkscape:pagecheckerboard="0"
     inkscape:deskcolor="#d1d1d1"
     inkscape:zoom="9.75054"
     inkscape:cx="41.638719"
     inkscape:cy="41.689999"
     inkscape:window-width="1920"
     inkscape:window-height="1009"
     inkscape:window-x="2552"
     inkscape:window-y="157"
     inkscape:window-maximized="1"
     inkscape:current-layer="Layer_2" />
  <defs
     id="defs1">
    <style
       id="style1">
      .cls-1 {
        opacity: .06;
      }

      .cls-2 {
        fill: #262626;
      }

      .cls-2, .cls-3, .cls-4, .cls-5, .cls-6 {
        stroke-width: 0px;
      }

      .cls-3 {
        fill: #1a1a1a;
      }

      .cls-4 {
        fill: #404040;
      }

      .cls-5 {
        fill: #212121;
      }

      .cls-6 {
        fill: #fff;
      }
    </style>
  </defs>
  <g
     id="Layer_1-2"
     data-name="Layer 1">
    <g
       id="g7">
      <g
         id="g2">
        <path
           class="cls-3"
           d="m83.38,41.7c0,23.02-18.68,41.69-41.7,41.68C18.66,83.37,0,64.7,0,41.68,0,18.66,18.66,0,41.68,0c23.02-.01,41.69,18.64,41.7,41.66v.04Z"
           id="path1" />
        <path
           class="cls-4"
           d="m41.68,0h-2.01l1,20h1V0h.01Zm-4,.19h-.31c-.56.06-1.12.13-1.67.21l2.84,19.79c.35,0,.69-.09,1-.12L37.68.19Zm-3.95.57h-.52c-.48.1-1,.2-1.44.32l4.74,19.43c.33-.08.67-.16,1-.22L33.73.76Zm-3.89,1l-.8.24h-.12l-.93.31,6.59,18.88c.32-.11.65-.22,1-.31L29.84,1.71v.05Zm-3.77,1.24c-.62.25-1.23.52-1.84.8l8.38,18.2c.32-.15.63-.29,1-.42L26.07,3Zm-3.63,1.7c-.59.31-1.18.63-1.75,1l10.09,17.28c.29-.18.6-.35.9-.51L22.44,4.7Zm-3.45,2c-.56.36-1.11.73-1.66,1.13l11.7,16.22.86-.59L18.99,6.72v-.02Zm-3.25,2.33c-.52.42-1.03.85-1.53,1.29l13.18,15c.27-.23.53-.45.81-.67l-12.46-15.6v-.02Zm-3,2.64l-.84.84h0l-.43.45,14.56,13.71c.24-.25.49-.5.74-.74l-14.04-14.24v-.02Zm-2.75,2.93h0c-.38.45-.74.9-1.1,1.36h0l15.8,12.26c.21-.27.44-.54.66-.81l-15.2-13-.16.19Zm-2.45,3.16l-.15.23h0c-.32.46-.63.92-.93,1.39l16.9,10.7c.19-.29.38-.59.58-.87L7.54,17.76Zm-2.14,3.38l-.45.81h0c-.17.31-.33.62-.49.93l17.85,9c.15-.31.32-.62.49-.92L5.4,21.09v.05Zm-1.79,3.57l-.2.45h0v.06h0v.06h0c-.18.42-.35.84-.52,1.27l18.63,7.26c.13-.32.26-.64.4-1L3.61,24.71Zm-1.45,3.72c-.09.27-.18.54-.26.81h0c-.06.18-.11.36-.16.55l19.24,5.43c.1-.33.2-.66.31-1L2.29,27.87l-.13.56Zm-1.09,3.85c-.12.53-.23,1.06-.33,1.59,0,.13-.05.25-.07.37l19.68,3.55c.06-.34.13-.68.21-1L1.07,32.29h0Zm-.71,3.94l-.15,1.28H.21l-.06.59,19.93,1.66c0-.35.07-.7.12-1L.36,36.15v.07ZM.03,40.22v1H.03v.06H.03v.24H.03v.4l20-.23h0v-.78L.03,40.2v.02Zm20,2.82L.03,44.22c0,.57.08,1.14.13,1.7H.16v.18l19.89-2.13c0-.34-.07-.69-.09-1l.07.07Zm.23,2.08L.5,48.18H.5c.09.53.18,1.05.28,1.57h0v.17l19.59-4c-.07-.34-.13-.67-.18-1l.07.2Zm.41,2L1.3,52.12c.17.65.35,1.29.54,1.93l19.11-5.9c-.1-.33-.19-.67-.28-1v-.03Zm.61,2l-18.8,6.81c.23.63.47,1.25.73,1.87l18.45-7.72c-.13-.32-.26-.64-.38-1v.04Zm.8,1.9l-18.06,8.58c0,.07.07.15.11.22h0c.17.37.36.73.55,1.1h0l.17.32,17.63-9.45c-.16-.31-.32-.62-.47-.93l.07.16Zm1,1.83l-17.17,10.27.3.48h0c.24.38.49.77.74,1.14l16.66-11.03c-.19-.29-.38-.58-.56-.88l.03.02Zm1.16,1.73l-16.11,11.87.23.3h0c.23.3.47.6.71.89l15.5-12.64c-.22-.27-.44-.55-.64-.83l.31.41Zm1.32,1.62l-14.9,13.35c.45.49.9,1,1.37,1.45l14.23-14.06c-.25-.24-.49-.5-.72-.76l.02.02Zm1.47,1.49l-13.56,14.7.76.68h.06l.67.57,12.82-15.35c-.27-.22-.54-.46-.79-.69l.04.09Zm1.58,1.31l-12.07,16,.93.68.69.48,11.3-16.5-.85-.66Zm1.72,1.18l-10.49,17,.1.07h0c.5.3,1,.6,1.52.88h0l9.66-17.51-.9-.52.11.08Zm1.82,1l-8.81,18,.34.17h.16c.42.2.84.39,1.27.57l7.93-18.36c-.31-.13-.63-.28-.94-.43l.05.05Zm1.9.82l-7,18.72c.63.24,1.25.45,1.89.66l6.13-19-1-.34-.02-.04Zm2,.63l-5.23,19.37.24.06h.2c.5.13,1,.25,1.5.36l4.26-19.55c-.34-.07-.67-.15-1-.24h.03Zm2,.44l-3.31,19.73c.5.08,1,.16,1.51.22l.47.06,2.36-19.86c-.35,0-.69-.09-1-.15h-.03Zm2.07.25l-1.41,20h2.03l.47-20h-1.09Zm3.16,0l-1,.05.47,20h.69l1.19-.06h.12l-1.42-20h-.05Zm2.07-.25c-.34.06-.69.11-1,.15l2.37,19.86c.62-.08,1.23-.16,1.83-.26h.15l-3.32-19.73-.03-.02Zm2-.44c-.33.09-.67.17-1,.24l4.26,19.55h.42l.76-.18h.36l.46-.24-5.2-19.32-.06-.05Zm2-.63l-1,.34,6.14,19,.92-.31h.2l.77-.29-7-18.71-.03-.03Zm1.9-.83l-.94.44,7.92,18.39c.35-.15.7-.3,1-.47h.16l.61-.29-8.81-18,.06-.07Zm1.82-1c-.3.18-.6.36-.9.52l9.67,17.51.18-.1h.1c.47-.26.92-.53,1.37-.8l-10.49-17,.07-.13Zm1.7-1.17c-.28.21-.56.42-.85.61l11.3,16.5c.25-.17.51-.35.75-.53h.15l.6-.45-11.95-16.13Zm1.6-1.34c-.25.24-.52.47-.78.69l12.82,15.35h.34c.34-.28.66-.57,1-.86h.06l-13.44-15.18h0Zm1.47-1.49c-.23.26-.47.52-.72.77l14.23,14h0c.31-.32.62-.64.92-1h0l.32-.35-14.75-13.42h0Zm1.32-1.61c-.2.27-.42.55-.64.82l15.5,12.62h0c.2-.26.41-.52.61-.79h0l.36-.47-15.83-12.18h0Zm1.16-1.74c-.18.3-.37.59-.56.88l16.64,11.1.14-.21h0c.31-.47.61-.95.9-1.43h0l-17.12-10.34h0Zm1-1.83c-.15.32-.31.63-.47.93l17.63,9.45.27-.51c.14-.28.28-.55.41-.83h0c0-.11.1-.22.16-.33l-18.02-8.7h.02Zm.8-1.9c-.12.32-.25.64-.38,1l18.45,7.71.29-.69h0c.14-.36.27-.71.4-1.06l-18.8-6.81.04-.15Zm.6-2c-.08.33-.18.67-.28,1l19.1,5.91.12-.41h0l.33-1.21-19.38-5,.11-.29Zm.42-2c0,.34-.12.68-.18,1l19.59,4c.11-.57.22-1.15.31-1.72v-.25l-19.76-3.07.04.04Zm.22-2.08c0,.35,0,.7-.08,1l19.88,2.13c0-.24.05-.47.07-.71h0c0-.38.06-.76.08-1.14v-.06l-20-1.18.05-.04Zm20-2.82l-20,.71v1.1l20,.23v-.43h0v-.09h0v-.17h0v-.34h0v-.44h0v-.09h0v-.15h0v-.33Zm-.33-4l-19.83,2.61c0,.34.08.69.11,1l19.93-1.66v-.47h0c0-.46-.1-.92-.16-1.37l-.05-.11Zm-.71-3.93l-19.49,4.5c.08.33.15.68.21,1l19.68-3.56-.18-.95h0l-.06-.32h0v-.06h0l-.06-.24-.1-.37Zm-1.09-3.85l-19,6.36c.11.33.21.66.3,1l19.25-5.44h0c-.14-.49-.29-1-.45-1.46h0c0-.1-.07-.19-.1-.29v-.17Zm-1.45-3.73l-18.27,8.17c.14.32.27.64.4,1l18.63-7.27c-.24-.62-.5-1.24-.77-1.85v-.05Zm-1.81-3.57l-17.36,9.89c.17.3.34.61.49.92l17.85-9c-.27-.52-.54-1-.83-1.55h0l-.15-.26Zm-2.14-3.37l-16.36,11.5c.2.28.39.57.58.86l16.89-10.7-.13-.2h0l-.66-1h0l-.27-.38-.05-.08Zm-2.45-3.16l-15.19,13c.22.26.44.53.66.81l15.76-12.25-.11-.15h0l-.13-.15-.99-1.26Zm-2.77-2.9l-13.89,14.4.74.74,14.57-13.72h0c-.46-.49-.92-1-1.4-1.42h-.02Zm-3-2.68l-12.44,15.7c.27.21.54.44.8.67l13.18-15-.23-.21h0l-1.31-1.16Zm-3.25-2.33l-10.88,16.81c.29.19.58.38.86.59l11.69-16.23-.42-.33h-.06l-.51-.36h-.08l-.55-.36-.05-.12Zm-3.45-2l-9.24,17.74c.31.16.61.33.91.5l10.09-17.25-.43-.25h-.06c-.4-.23-.8-.44-1.21-.66l-.06-.08Zm-3.62-1.67l-7.49,18.54.95.41L59.13,3.79h-.32c-.5-.23-1-.44-1.52-.65v-.14Zm-3.78-1.3l-5.66,19.18,1,.32,6.59-18.89-1.34-.44h-.15l-.42-.13-.02-.04Zm-3.9-.94l-3.79,19.63,1,.22L51.61,1.18h-.23l-.82-.19h-.23c-.23-.06-.45-.1-.67-.14l-.05-.09Zm-4-.57l-1.83,19.91c.35,0,.7.07,1,.12L47.66.42l-.5-.06h-.21l-.9-.1h-.38l-.06-.07ZM41.61,0v20h1.06L43.61,0h-2Z"
           id="path2" />
      </g>
      <path
         class="cls-2"
         d="m41.68,2c21.92,0,39.69,17.76,39.7,39.68,0,21.92-17.76,39.69-39.68,39.7-21.92,0-39.69-17.76-39.7-39.68C2.03,19.79,19.77,2.04,41.68,2M41.68,0C18.66,0,0,18.68,0,41.7c0,23.02,18.68,41.69,41.7,41.68,23.02,0,41.67-18.66,41.68-41.68C83.39,18.68,64.72,0,41.7,0c0,0-.01,0-.02,0Z"
         id="path3" />
      <g
         class="cls-1"
         id="g4">
        <path
           class="cls-6"
           d="m77.7,41.7c0,19.88-16.12,36-36,36S5.7,61.58,5.7,41.7,21.82,5.7,41.7,5.7s36,16.12,36,36Z"
           id="path4" />
      </g>
      <g
         id="g6">
        <path
           class="cls-5"
           d="m41.68,69.83c-15.54,0-28.13-12.59-28.13-28.13,0-15.54,12.59-28.13,28.13-28.13,15.54,0,28.13,12.59,28.13,28.13h0c-.01,15.53-12.6,28.12-28.13,28.13Z"
           id="path5" />
        <path
           class="cls-3"
           d="m41.68,16.58c13.88-.03,25.16,11.19,25.19,25.07.03,13.88-11.19,25.16-25.07,25.19-13.88.03-25.16-11.19-25.19-25.07,0-.02,0-.05,0-.07.02-13.87,11.25-25.1,25.12-25.12m0-6c-17.19-.03-31.15,13.89-31.18,31.08-.03,17.19,13.89,31.15,31.08,31.18,17.19.03,31.15-13.89,31.18-31.08,0-.02,0-.04,0-.06,0-17.19-13.93-31.12-31.12-31.12,0,0,0,0,0,0h.05Z"
           id="path6" />
      </g>
    </g>
  </g>
  <path
     style="fill:#4e8291;stroke-width:0.028101"
     d="m 39.279876,66.695913 c -5.963712,-0.611288 -11.437149,-3.273919 -15.58888,-7.583429 -1.973827,-2.048838 -3.278549,-3.912826 -4.513874,-6.448734 -3.406955,-6.993884 -3.370701,-15.179081 0.09789,-22.10134 0.976359,-1.948517 1.810469,-3.231913 3.16612,-4.871525 2.556008,-3.091401 6.056675,-5.67408 9.710932,-7.16441 8.48648,-3.461075 17.846196,-2.159667 25.166328,3.499216 1.090066,0.842685 3.020215,2.757269 3.952117,3.92025 5.116578,6.385305 6.821678,14.720323 4.615969,22.564193 -2.733921,9.722288 -11.038103,16.855665 -21.067675,18.097349 -1.158491,0.143424 -4.484383,0.196523 -5.538928,0.08843 z"
     id="path7" />
  <path
     style="fill:#67a4a5;stroke-width:0.028101"
     d="M 40.164875,8.9482224 C 40.127707,8.05981 40.068947,6.9752547 40.034298,6.5380994 l -0.063,-0.7948277 h 1.667355 1.667355 l -0.06546,1.2563406 c -0.03601,0.6909874 -0.09362,1.7755427 -0.128033,2.410123 l -0.06257,1.1537827 H 41.6412 40.232454 Z"
     id="path8" />
  <path
     style="fill:#67a4a5;stroke-width:0.028101"
     d="m 39.953763,4.5125706 c -0.03354,-0.648682 -0.08479,-1.4678674 -0.113895,-1.820412 l -0.05291,-0.6409902 h 1.850978 1.850978 l -0.05683,0.9999447 c -0.03126,0.5499695 -0.08155,1.3691549 -0.111757,1.820412 l -0.05492,0.8204673 h -1.625326 -1.625326 z"
     id="path9" />
  <path
     style="fill:#67a4a5;stroke-width:0.028101"
     d="m 45.862021,5.9240952 -0.750782,-0.099352 0.05592,-0.3740506 C 45.197913,5.2449647 45.27756,4.4368044 45.34415,3.6547809 l 0.121075,-1.421861 0.727627,0.068105 c 0.91877,0.085996 1.086581,0.1368077 1.086581,0.3290061 0,0.1782554 -0.389153,2.844293 -0.465658,3.1901591 -0.02807,0.126916 -0.08478,0.224569 -0.126007,0.2170064 -0.04123,-0.00756 -0.412817,-0.058458 -0.825747,-0.1131013 z"
     id="path10" />
  <path
     style="fill:#67a4a5;stroke-width:0.028101"
     d="m 45.392423,10.751964 c -0.332766,-0.04529 -0.626117,-0.103426 -0.651891,-0.1292 -0.05253,-0.05253 0.36565,-4.5598132 0.43319,-4.669096 0.03692,-0.059734 1.483956,0.080357 1.573389,0.1523231 0.05385,0.043336 -0.615157,4.6076499 -0.684478,4.6698379 -0.03585,0.03216 -0.337444,0.02142 -0.67021,-0.02387 z"
     id="path11" />
  <path
     style="fill:#67a4a5;stroke-width:0.028101"
     d="m 49.330601,6.4880668 c -0.366646,-0.084836 -0.682775,-0.1686583 -0.702508,-0.1862711 -0.0332,-0.029636 0.600333,-3.4468519 0.650648,-3.5095134 0.0124,-0.015441 0.409888,0.057868 0.883309,0.1629089 0.652803,0.1448415 0.857616,0.2304019 0.847729,0.3541391 -0.0387,0.4843035 -0.816823,3.3551452 -0.90664,3.3449757 -0.05825,-0.0066 -0.405891,-0.081403 -0.772538,-0.1662392 z"
     id="path12" />
  <path
     style="fill:#67a4a5;stroke-width:0.028101"
     d="m 48.287271,11.244673 c -0.263592,-0.0644 -0.508104,-0.146223 -0.543359,-0.181837 -0.05219,-0.05272 0.681284,-4.1647315 0.813861,-4.5627182 0.05068,-0.1521424 1.595012,0.1477101 1.589113,0.3085477 -0.0023,0.062715 -0.245794,1.1058798 -0.541099,2.3181433 -0.387378,1.5902382 -0.57902,2.2084092 -0.688087,2.2195312 -0.08314,0.0085 -0.366837,-0.03727 -0.630429,-0.101667 z"
     id="path13" />
  <path
     style="fill:#67a4a5;stroke-width:0.028101"
     d="M 52.680042,7.3837415 C 52.35056,7.2797032 52.05753,7.171127 52.028864,7.1424612 c -0.04524,-0.045238 0.86473,-3.3385428 0.949204,-3.4353069 0.0731,-0.083738 1.685072,0.524997 1.679829,0.6343614 -0.01683,0.3510402 -1.11247,3.1987538 -1.236552,3.2139573 -0.07823,0.00959 -0.411821,-0.067693 -0.741303,-0.1717315 z"
     id="path14" />
  <path
     style="fill:#67a4a5;stroke-width:0.028101"
     d="m 51.176653,12.005677 c -0.310239,-0.09827 -0.558137,-0.220658 -0.550884,-0.271981 0.0073,-0.05132 0.304211,-1.090906 0.659906,-2.3101848 l 0.646717,-2.2168698 0.75889,0.2341434 c 0.417389,0.1287789 0.770158,0.2494957 0.783931,0.2682597 0.06274,0.085467 -1.541112,4.4929535 -1.63193,4.4846615 -0.05641,-0.0052 -0.356391,-0.08976 -0.66663,-0.188029 z"
     id="path15" />
  <path
     style="fill:#67a4a5;stroke-width:0.028101"
     d=""
     id="path16" />
  <path
     style="fill:#67a4a5;stroke-width:0.028101"
     d="M 55.92935,8.5965905 55.195172,8.2864698 55.836066,6.7306515 c 0.352492,-0.8557 0.659796,-1.6100919 0.682899,-1.6764263 0.04219,-0.1211422 1.34688,0.363243 1.56447,0.5808324 0.06505,0.065054 -0.144242,0.6308236 -0.598133,1.6168785 -0.384012,0.834245 -0.726006,1.5478514 -0.759988,1.5857921 -0.03398,0.037941 -0.392166,-0.070571 -0.795964,-0.2411377 z"
     id="path17" />
  <path
     style="fill:#67a4a5;stroke-width:0.028101"
     d="m 54.078638,13.090455 c -0.293546,-0.124875 -0.563652,-0.256976 -0.600234,-0.293559 -0.03658,-0.03658 0.334871,-1.057197 0.825451,-2.268033 l 0.891964,-2.2015207 0.477459,0.201689 c 0.735931,0.3108736 0.938971,0.4211529 0.938971,0.5099927 0,0.1057724 -1.840751,4.117614 -1.931261,4.209105 -0.03775,0.03815 -0.308803,-0.0328 -0.60235,-0.157674 z"
     id="path18" />
  <path
     style="fill:#67a4a5;stroke-width:0.028101"
     d="M 59.022372,10.101691 C 58.683929,9.9077155 58.407504,9.713054 58.408094,9.6691102 c 0.0014,-0.1057377 1.334222,-2.6929107 1.512042,-2.935102 0.131901,-0.1796497 0.171412,-0.1706137 0.82509,0.1886926 0.377605,0.2075578 0.712446,0.4192719 0.744092,0.4704758 0.06532,0.1056892 -1.599197,2.9854214 -1.752148,3.0313414 -0.0547,0.01642 -0.376355,-0.128851 -0.714798,-0.322827 z"
     id="path19" />
  <path
     style="fill:#67a4a5;stroke-width:0.028101"
     d="m 56.636703,14.341493 -0.539618,-0.312128 1.040992,-2.014959 c 0.572546,-1.108228 1.079725,-2.0577839 1.127063,-2.1101244 0.08742,-0.096662 1.145648,0.3973414 1.332826,0.6221954 0.0656,0.0788 -0.279161,0.760292 -1.05965,2.094658 -0.636283,1.087823 -1.20303,1.99015 -1.259437,2.005172 -0.05641,0.01502 -0.345386,-0.113144 -0.642176,-0.284814 z"
     id="path20" />
  <path
     style="fill:#67a4a5;stroke-width:0.028101"
     d="m 61.917666,11.886015 c -0.40747,-0.282761 -0.567127,-0.452617 -0.512792,-0.545546 0.428446,-0.732779 1.841512,-2.8281137 1.907243,-2.8281164 0.04667,-2e-6 0.398138,0.2156049 0.781048,0.4791263 l 0.696198,0.4791298 -1.017859,1.4182013 c -0.559822,0.78001 -1.072823,1.415862 -1.140002,1.413004 -0.06718,-0.0029 -0.388405,-0.189968 -0.713836,-0.415799 z"
     id="path21" />
  <path
     style="fill:#67a4a5;stroke-width:0.028101"
     d="m 59.245691,15.95284 c -0.272025,-0.188065 -0.502782,-0.370042 -0.512793,-0.404395 -0.01001,-0.03435 0.55869,-0.955076 1.263779,-2.04605 l 1.28198,-1.98359 0.564072,0.368463 c 0.310239,0.202655 0.615341,0.416437 0.678005,0.475071 0.08181,0.07655 -0.270311,0.639779 -1.248666,1.997331 -0.749429,1.039898 -1.400666,1.900709 -1.447193,1.912914 -0.04653,0.01221 -0.30716,-0.13168 -0.579184,-0.319744 z"
     id="path22" />
  <path
     style="fill:#67a4a5;stroke-width:0.028101"
     d="m 64.765644,14.031638 c -0.338443,-0.287985 -0.608366,-0.543599 -0.599828,-0.568032 0.0085,-0.02443 0.505854,-0.665628 1.105148,-1.424876 l 1.089626,-1.380452 0.71048,0.584489 0.71048,0.58449 -0.266176,0.316796 c -0.323373,0.38487 -2.116268,2.420862 -2.126841,2.415218 -0.0041,-0.0022 -0.284446,-0.239649 -0.622889,-0.527633 z"
     id="path23" />
  <path
     style="fill:#67a4a5;stroke-width:0.028101"
     d="m 61.607424,17.714858 -0.4917,-0.433764 1.466005,-1.85858 c 1.118215,-1.417656 1.502502,-1.838998 1.619843,-1.776035 0.08461,0.0454 0.378249,0.282012 0.652529,0.525803 l 0.498692,0.443256 -1.557107,1.768651 c -0.856408,0.972759 -1.588483,1.767703 -1.626834,1.766542 -0.03835,-0.0012 -0.290992,-0.197303 -0.561428,-0.435873 z"
     id="path24" />
  <path
     style="fill:#67a4a5;stroke-width:0.028101"
     d="m 67.2864,16.366245 -0.550726,-0.557653 1.212571,-1.289278 c 0.666914,-0.709102 1.24043,-1.289278 1.274481,-1.289278 0.03405,0 0.336762,0.277751 0.672692,0.617224 l 0.610783,0.617223 -1.270013,1.203189 c -0.698507,0.661754 -1.299049,1.215122 -1.334538,1.229707 -0.03549,0.01459 -0.312351,-0.224426 -0.61525,-0.531134 z"
     id="path25" />
  <path
     style="fill:#67a4a5;stroke-width:0.028101"
     d="m 63.797982,19.749265 -0.446297,-0.454743 1.625001,-1.700652 c 0.89375,-0.935358 1.658473,-1.688362 1.699384,-1.673343 0.04091,0.01502 0.315376,0.256159 0.609923,0.535867 l 0.53554,0.508559 -1.681782,1.615605 c -0.924981,0.888583 -1.729863,1.617371 -1.788627,1.619529 -0.05876,0.0022 -0.307678,-0.200713 -0.553142,-0.450822 z"
     id="path26" />
  <path
     style="fill:#67a4a5;stroke-width:0.028101"
     d="m 69.593847,18.904655 c -0.38767,-0.470899 -0.453428,-0.605428 -0.345876,-0.707593 0.07304,-0.06938 0.680006,-0.593866 1.348811,-1.16552 0.937164,-0.801031 1.247001,-1.013651 1.35116,-0.927206 0.331147,0.274827 0.995853,1.244083 0.910151,1.327155 -0.244764,0.237251 -2.640051,2.054609 -2.707985,2.054609 -0.04267,0 -0.292988,-0.26165 -0.556261,-0.581445 z"
     id="path27" />
  <path
     style="fill:#67a4a5;stroke-width:0.028101"
     d="m 65.945211,22.127189 c -0.188207,-0.239846 -0.382674,-0.489448 -0.43215,-0.554672 -0.06109,-0.08054 0.491279,-0.614881 1.721388,-1.665219 0.996238,-0.850647 1.845388,-1.525588 1.887001,-1.49987 0.128873,0.07965 0.957294,1.184464 0.914797,1.220011 -0.02207,0.01846 -0.80162,0.623664 -1.732338,1.344898 -0.930717,0.721234 -1.765179,1.374245 -1.854358,1.451135 -0.141321,0.121845 -0.206091,0.08379 -0.50434,-0.296283 z"
     id="path28" />
  <path
     style="fill:#67a4a5;stroke-width:0.028101"
     d="m 71.692159,21.748013 c -0.227731,-0.335348 -0.411604,-0.646869 -0.408607,-0.69227 0.0056,-0.08489 2.87552,-2.11227 2.916358,-2.060181 0.143158,0.182594 0.963683,1.458399 0.946782,1.472118 -0.108312,0.08792 -2.968309,1.890056 -2.999527,1.890056 -0.02252,0 -0.227276,-0.274375 -0.455006,-0.609723 z"
     id="path29" />
  <path
     style="fill:#67a4a5;stroke-width:0.028101"
     d="m 67.645164,24.451768 c -0.201761,-0.303875 -0.366839,-0.572532 -0.366839,-0.597016 0,-0.0562 3.650606,-2.616145 3.821891,-2.680059 0.09987,-0.03727 1.046482,1.180726 0.96718,1.244457 -0.01106,0.0089 -0.928044,0.594172 -2.037748,1.300637 l -2.017645,1.28448 z"
     id="path30" />
  <path
     style="fill:#67a4a5;stroke-width:0.028101"
     d="m 73.488798,24.743369 c -0.200554,-0.377689 -0.364643,-0.718553 -0.364643,-0.757476 0,-0.07913 2.902217,-1.730715 3.041269,-1.730715 0.107109,0 0.92552,1.504265 0.854634,1.570843 -0.02748,0.02581 -0.75121,0.397278 -1.60829,0.825489 l -1.558328,0.778565 z"
     id="path31" />
  <path
     style="fill:#67a4a5;stroke-width:0.028101"
     d="m 69.165379,26.976438 -0.317952,-0.61012 1.983774,-1.132294 c 1.091076,-0.622761 2.03506,-1.143944 2.097743,-1.158184 0.110698,-0.02515 0.806886,1.100442 0.809339,1.308531 9.1e-4,0.07716 -4.089816,2.207663 -4.229959,2.203016 -0.01375,-4.56e-4 -0.168071,-0.275383 -0.342945,-0.610949 z"
     id="path32" />
  <path
     style="fill:#67a4a5;stroke-width:0.028101"
     d="m 74.933874,27.785669 c -0.161001,-0.397675 -0.276379,-0.738456 -0.256396,-0.757293 0.01998,-0.01884 0.757563,-0.355416 1.639066,-0.747956 l 1.602733,-0.713709 0.334997,0.811387 c 0.195161,0.472692 0.296729,0.848462 0.243319,0.900206 -0.113287,0.109754 -2.989668,1.23342 -3.15286,1.231674 -0.06497,-6.95e-4 -0.249858,-0.326634 -0.410859,-0.724309 z"
     id="path33" />
  <path
     style="fill:#67a4a5;stroke-width:0.028101"
     d="m 70.445777,29.695977 -0.268256,-0.65973 1.140002,-0.514361 c 2.929132,-1.321605 3.190209,-1.425463 3.319369,-1.320456 0.07051,0.05732 0.128198,0.161935 0.128198,0.232469 0,0.07053 0.09663,0.346692 0.214735,0.613686 0.118104,0.266994 0.175793,0.520372 0.128198,0.563062 -0.06376,0.05719 -3.271727,1.333558 -4.291432,1.707455 -0.05641,0.02068 -0.223274,-0.259273 -0.370814,-0.622125 z"
     id="path34" />
  <path
     style="fill:#67a4a5;stroke-width:0.028101"
     d="m 76.125158,31.049562 c -0.120749,-0.408951 -0.187716,-0.772275 -0.148816,-0.807385 0.122537,-0.110596 3.224217,-1.111957 3.299717,-1.065296 0.08464,0.05231 0.551799,1.587498 0.499059,1.640014 -0.03925,0.03909 -3.275821,0.976216 -3.371562,0.976216 -0.03237,0 -0.157648,-0.334597 -0.278398,-0.743549 z"
     id="path35" />
  <path
     style="fill:#67a4a5;stroke-width:0.028101"
     d="m 71.637441,33.005244 c -0.13578,-0.368182 -0.347923,-1.155175 -0.319148,-1.183951 0.01797,-0.01797 1.03347,-0.376705 2.256672,-0.797195 1.635172,-0.562109 2.237416,-0.729573 2.274663,-0.632509 0.19145,0.498912 0.423235,1.408075 0.367456,1.441327 -0.0371,0.02212 -0.990481,0.300161 -2.118624,0.617876 -1.128142,0.317715 -2.13216,0.602877 -2.231151,0.633693 -0.09983,0.03108 -0.202199,-0.0042 -0.229868,-0.07924 z"
     id="path36" />
  <path
     style="fill:#67a4a5;stroke-width:0.028101"
     d="m 76.989398,34.391344 c -0.0941,-0.433628 -0.160016,-0.797657 -0.146477,-0.808953 0.09638,-0.08042 3.370471,-0.767949 3.443148,-0.723032 0.05064,0.0313 0.147072,0.346469 0.214304,0.700387 0.06723,0.353918 0.142956,0.71531 0.168276,0.803092 0.038,0.131733 -0.236132,0.209113 -1.569862,0.443133 -0.888744,0.155941 -1.688438,0.303837 -1.777098,0.328658 -0.126999,0.03556 -0.197498,-0.122141 -0.332291,-0.743285 z"
     id="path37" />
  <path
     style="fill:#67a4a5;stroke-width:0.028101"
     d="m 72.20735,35.372685 c -0.06766,-0.343926 -0.101562,-0.646783 -0.07533,-0.673014 0.05561,-0.05561 4.35247,-1.060508 4.534656,-1.060508 0.1164,0 0.200725,0.301906 0.318589,1.140645 0.04561,0.324559 0.02205,0.378885 -0.186601,0.430298 -0.320619,0.079 -4.257064,0.7879 -4.375133,0.7879 -0.05124,0 -0.148516,-0.281394 -0.21618,-0.625321 z"
     id="path38" />
  <path
     style="fill:#67a4a5;stroke-width:0.028101"
     d="m 77.590624,38.433769 c -0.02182,-0.07051 -0.0668,-0.42989 -0.09996,-0.798625 l -0.06029,-0.670427 1.763636,-0.224528 c 0.97,-0.123491 1.775048,-0.213116 1.788997,-0.199167 0.02092,0.02092 0.215715,1.710519 0.197674,1.714536 -0.03188,0.0071 -3.410693,0.304201 -3.470253,0.305142 -0.04408,6.97e-4 -0.09799,-0.05642 -0.119802,-0.126931 z"
     id="path39" />
  <path
     style="fill:#67a4a5;stroke-width:0.028101"
     d="m 72.669058,38.341485 c -0.04698,-0.415264 -0.03347,-0.654131 0.03955,-0.699262 0.19843,-0.122636 4.537294,-0.640431 4.619856,-0.551328 0.0441,0.04759 0.111696,0.394324 0.150216,0.770514 l 0.07003,0.68398 -0.545707,0.0608 c -0.437141,0.04871 -4.103974,0.366009 -4.229694,0.366009 -0.0181,0 -0.06501,-0.283823 -0.104259,-0.630716 z"
     id="path40" />
  <path
     style="fill:#67a4a5;stroke-width:0.028101"
     d="m 77.739284,41.279765 v -0.871747 h 0.855991 c 0.470795,0 1.278443,-0.02999 1.794773,-0.06664 l 0.938781,-0.06664 v 0.938383 0.938384 h -1.794772 -1.794773 z"
     id="path41" />
  <path
     style="fill:#67a4a5;stroke-width:0.028101"
     d="m 74.688171,42.074741 -1.871691,-0.03042 v -0.704933 -0.704934 l 1.512737,-0.06203 c 0.832005,-0.03412 1.91656,-0.08207 2.410123,-0.106561 l 0.897386,-0.04453 v 0.865087 0.865087 l -0.538432,-0.02318 c -0.296137,-0.01275 -1.380693,-0.03686 -2.410123,-0.05359 z"
     id="path42" />
  <path
     style="fill:#67a4a5;stroke-width:0.028101"
     d="m 78.98405,45.659031 -1.473032,-0.157608 0.06285,-0.458569 c 0.03457,-0.252213 0.06276,-0.602119 0.06264,-0.777569 l -2.15e-4,-0.319001 1.794987,0.09215 1.794988,0.09215 v 0.380685 c 0,0.209377 -0.02935,0.594808 -0.06522,0.856513 -0.07655,0.558482 0.09996,0.534869 -2.177001,0.291243 z"
     id="path43" />
  <path
     style="fill:#67a4a5;stroke-width:0.028101"
     d="m 74.636892,45.194495 -1.922971,-0.209724 v -0.326947 c 0,-0.17982 0.03011,-0.477521 0.06692,-0.661557 l 0.06692,-0.334611 1.138139,0.06455 c 0.625977,0.0355 1.701094,0.0948 2.389149,0.131761 l 1.25101,0.06721 -0.05352,0.625904 c -0.02944,0.344246 -0.07174,0.683592 -0.09401,0.754101 -0.05221,0.165304 -0.454871,0.14962 -2.841645,-0.110688 z"
     id="path44" />
  <path
     style="fill:#67a4a5;stroke-width:0.028101"
     d="m 78.719123,49.266162 c -0.89947,-0.193501 -1.647895,-0.364314 -1.663166,-0.379585 -0.07204,-0.07204 0.240378,-1.555815 0.32751,-1.555462 0.05468,2.21e-4 0.84938,0.11403 1.765995,0.252908 1.891602,0.2866 1.750429,0.163815 1.528147,1.3291 -0.06918,0.362662 -0.170173,0.669617 -0.224432,0.682122 -0.05426,0.01251 -0.834583,-0.135582 -1.734054,-0.329083 z"
     id="path45" />
  <path
     style="fill:#67a4a5;stroke-width:0.028101"
     d="m 74.580547,48.416219 c -1.257845,-0.259671 -2.287981,-0.506708 -2.289191,-0.54897 -0.0079,-0.274547 0.152022,-1.21401 0.213024,-1.251712 0.071,-0.04388 4.622139,0.632295 4.686067,0.696223 0.04864,0.04864 -0.171211,1.323972 -0.251194,1.457166 -0.05231,0.08711 -0.690495,-0.0083 -2.358706,-0.352707 z"
     id="path46" />
  <path
     style="fill:#67a4a5;stroke-width:0.028101"
     d="m 77.859623,52.816686 c -0.864531,-0.271382 -1.596378,-0.517926 -1.626326,-0.547874 -0.09036,-0.09036 0.208321,-1.112255 0.339846,-1.162726 0.102027,-0.03915 3.305358,0.739779 3.389868,0.82429 0.0616,0.0616 -0.348806,1.338342 -0.436602,1.358232 -0.0522,0.01183 -0.802255,-0.200539 -1.666786,-0.471922 z"
     id="path47" />
  <path
     style="fill:#67a4a5;stroke-width:0.028101"
     d="m 73.620762,51.509003 -2.118632,-0.670258 0.137383,-0.45649 c 0.07556,-0.25107 0.161044,-0.480151 0.189961,-0.509068 0.04367,-0.04367 1.200615,0.238542 4.2029,1.025214 0.370045,0.09696 0.392108,0.12414 0.342317,0.421703 -0.09377,0.560359 -0.261606,0.882743 -0.45328,0.870645 -0.100109,-0.0063 -1.135401,-0.313104 -2.300649,-0.681746 z"
     id="path48" />
  <path
     style="fill:#67a4a5;stroke-width:0.028101"
     d="m 76.564257,56.238663 c -0.84369,-0.363166 -1.545099,-0.671419 -1.558686,-0.685006 -0.01359,-0.01359 0.09568,-0.33108 0.242827,-0.70554 l 0.267531,-0.680834 1.291155,0.462807 c 0.710135,0.254544 1.429609,0.510977 1.59883,0.569851 0.169221,0.05887 0.343815,0.139191 0.387985,0.178484 0.104418,0.09289 -0.457624,1.544763 -0.59268,1.53102 -0.05664,-0.0058 -0.793272,-0.307615 -1.636962,-0.670782 z"
     id="path49" />
  <path
     style="fill:#67a4a5;stroke-width:0.028101"
     d="m 72.598099,54.582842 -2.115712,-0.888654 0.211139,-0.566498 c 0.116127,-0.311574 0.219471,-0.579263 0.229655,-0.594865 0.01444,-0.02213 3.124344,1.074304 4.32579,1.525102 l 0.227484,0.08535 -0.242091,0.644773 c -0.133151,0.354625 -0.304746,0.653473 -0.381323,0.664106 -0.07658,0.01063 -1.091301,-0.38056 -2.254942,-0.869319 z"
     id="path50" />
  <path
     style="fill:#67a4a5;stroke-width:0.028101"
     d="m 71.329383,57.481361 c -1.071736,-0.585274 -1.988891,-1.079833 -2.038122,-1.099019 -0.06756,-0.02633 0.346118,-1.00864 0.498532,-1.183813 0.01396,-0.01605 0.997393,0.439687 2.185397,1.012748 l 2.160008,1.041928 -0.322417,0.653827 c -0.177329,0.359605 -0.3702,0.65037 -0.428602,0.646145 -0.0584,-0.0042 -0.983061,-0.486542 -2.054796,-1.071816 z"
     id="path51" />
  <path
     style="fill:#67a4a5;stroke-width:0.028101"
     d="m 75.124044,59.520252 c -0.789699,-0.426762 -1.473191,-0.810739 -1.518869,-0.853283 -0.04568,-0.04254 0.06527,-0.378137 0.246556,-0.745764 l 0.329609,-0.668411 1.626822,0.80708 1.626821,0.80708 -0.361931,0.718699 c -0.199062,0.395285 -0.395964,0.716861 -0.43756,0.714614 -0.0416,-0.0022 -0.721748,-0.353253 -1.511448,-0.780015 z"
     id="path52" />
  <path
     style="fill:#67a4a5;stroke-width:0.028101"
     d="m 69.637169,60.246123 c -1.043532,-0.701606 -1.88875,-1.310123 -1.878262,-1.352258 0.04958,-0.199194 0.598511,-1.050915 0.67731,-1.050915 0.04907,0 0.986092,0.537422 2.082272,1.19427 l 1.993055,1.194271 -0.222091,0.369745 c -0.12215,0.203361 -0.295834,0.49637 -0.385964,0.651133 -0.09013,0.154763 -0.210024,0.278691 -0.266431,0.275395 -0.05641,-0.0033 -0.956357,-0.580034 -1.999889,-1.281641 z"
     id="path53" />
  <path
     style="fill:#67a4a5;stroke-width:0.028101"
     d="m 73.203703,62.630725 c -0.774152,-0.518009 -1.408732,-0.978664 -1.410178,-1.023679 -0.0014,-0.04501 0.1589,-0.334357 0.356325,-0.642982 0.197425,-0.308625 0.358955,-0.605 0.358955,-0.658612 0,-0.05361 0.151103,0.005 0.335786,0.130189 0.184682,0.125216 0.876952,0.549592 1.538376,0.943058 0.661425,0.393466 1.20259,0.75227 1.20259,0.797342 0,0.126364 -0.829941,1.41108 -0.906579,1.403349 -0.03725,-0.0038 -0.701123,-0.430657 -1.475275,-0.948665 z"
     id="path54" />
  <path
     style="fill:#67a4a5;stroke-width:0.028101"
     d="m 67.777703,62.85361 c -0.979747,-0.797786 -1.799332,-1.465724 -1.821299,-1.484306 -0.02197,-0.01858 0.09341,-0.20534 0.256396,-0.415018 0.162985,-0.209678 0.325699,-0.42438 0.361586,-0.477115 0.03589,-0.05273 0.921114,0.561467 1.96717,1.364894 l 1.90192,1.460776 -0.373766,0.500645 c -0.205571,0.275355 -0.404565,0.500645 -0.442208,0.500645 -0.03764,0 -0.870053,-0.652734 -1.849799,-1.450521 z"
     id="path55" />
  <path
     style="fill:#67a4a5;stroke-width:0.028101"
     d="m 71.124266,65.576457 c -0.733293,-0.600011 -1.345935,-1.123617 -1.361426,-1.16357 -0.05684,-0.146586 0.707641,-1.035955 0.829326,-0.964807 0.183438,0.107256 2.242154,1.681166 2.502907,1.913499 0.251659,0.224231 0.243808,0.244201 -0.401567,1.021566 l -0.235981,0.284242 z"
     id="path56" />
  <path
     style="fill:#67a4a5;stroke-width:0.028101"
     d="m 68.634491,68.173033 -1.255997,-1.25902 0.49187,-0.484473 c 0.270529,-0.266461 0.529179,-0.484474 0.574779,-0.484474 0.0456,0 0.620906,0.491739 1.278458,1.092754 0.657551,0.601015 1.232793,1.125157 1.278315,1.164759 0.0798,0.06942 -0.90456,1.229473 -1.043262,1.229473 -0.03749,0 -0.633365,-0.566559 -1.324163,-1.259019 z"
     id="path57" />
  <path
     style="fill:#67a4a5;stroke-width:0.028101"
     d="m 65.645414,65.270435 c -0.906927,-0.883865 -1.648958,-1.647336 -1.648958,-1.696604 0,-0.116796 0.717316,-0.910635 0.822853,-0.910635 0.102368,0 3.485156,3.072306 3.48303,3.163347 -0.0027,0.117288 -0.140481,0.276077 -0.580117,0.668761 l -0.427849,0.382157 z"
     id="path58" />
  <path
     style="fill:#67a4a5;stroke-width:0.028101"
     d="m 63.246807,67.432961 c -0.82865,-0.986686 -1.506637,-1.81185 -1.506637,-1.833697 0,-0.02185 0.203086,-0.206137 0.451301,-0.409531 l 0.451302,-0.369807 1.548588,1.749116 c 0.851723,0.962013 1.548588,1.786501 1.548588,1.832195 0,0.07735 -0.857731,0.825698 -0.946387,0.825698 -0.02206,0 -0.718105,-0.807288 -1.546755,-1.793974 z"
     id="path59" />
  <path
     style="fill:#67a4a5;stroke-width:0.028101"
     d="m 66.020848,70.757098 c -0.605752,-0.725942 -1.101367,-1.363609 -1.101367,-1.417037 0,-0.104743 0.811189,-0.831035 0.928175,-0.831035 0.03893,0 0.584588,0.584632 1.212569,1.299182 1.279916,1.456358 1.251964,1.32502 0.42208,1.983198 l -0.360091,0.285588 z"
     id="path60" />
  <path
     style="fill:#67a4a5;stroke-width:0.028101"
     d="m 63.055603,72.877606 -0.992132,-1.468572 0.605683,-0.417956 0.605684,-0.417956 1.027439,1.379132 c 0.565091,0.758522 1.027438,1.420478 1.027438,1.471012 0,0.09255 -0.944251,0.808968 -1.163909,0.883076 -0.06494,0.02191 -0.564531,-0.621022 -1.110203,-1.428736 z"
     id="path61" />
  <path
     style="fill:#67a4a5;stroke-width:0.028101"
     d="m 60.674379,69.378909 c -0.716569,-1.044558 -1.281369,-1.933958 -1.255111,-1.976445 0.02626,-0.04249 0.255143,-0.226193 0.508632,-0.408235 l 0.46089,-0.330986 1.393599,1.886653 c 0.766479,1.037659 1.39277,1.926011 1.391757,1.974115 -0.002,0.09654 -0.969186,0.754093 -1.109136,0.754093 -0.04828,0 -0.674061,-0.854638 -1.390631,-1.899195 z"
     id="path62" />
  <path
     style="fill:#67a4a5;stroke-width:0.028101"
     d="m 57.95457,71.057359 c -0.627075,-1.136737 -1.127938,-2.074723 -1.11303,-2.084414 0.01491,-0.0097 0.260396,-0.15822 0.545528,-0.330067 l 0.518423,-0.31245 1.2113,1.979366 c 0.666215,1.088652 1.217497,2.014369 1.22507,2.057149 0.01339,0.07564 -1.048029,0.75594 -1.180764,0.756788 -0.03652,2.33e-4 -0.579453,-0.929634 -1.206527,-2.066372 z"
     id="path63" />
  <path
     style="fill:#67a4a5;stroke-width:0.028101"
     d="m 60.074163,74.893288 c -0.429125,-0.775598 -0.795178,-1.4738 -0.813451,-1.55156 -0.0318,-0.135317 1.008613,-0.84865 1.171263,-0.803048 0.04199,0.01177 0.487942,0.688747 0.991007,1.504389 l 0.914665,1.482986 -0.632053,0.385084 c -0.34763,0.211797 -0.681362,0.386714 -0.741629,0.388706 -0.06027,0.002 -0.460677,-0.630959 -0.889802,-1.406557 z"
     id="path64" />
  <path
     style="fill:#67a4a5;stroke-width:0.028101"
     d="m 57.341976,77.826629 c -0.05148,-0.132651 -0.3521,-0.838563 -0.668055,-1.568694 -0.315955,-0.730132 -0.573676,-1.37625 -0.572714,-1.435818 0.0014,-0.08644 0.510321,-0.354173 1.242943,-0.653879 0.07766,-0.03177 1.626943,2.964186 1.626943,3.146125 0,0.07311 -0.647176,0.395792 -1.408753,0.702408 -0.06972,0.02807 -0.168889,-0.05749 -0.220364,-0.190142 z"
     id="path65" />
  <path
     style="fill:#67a4a5;stroke-width:0.028101"
     d="m 55.835791,74.301997 c -0.08285,-0.198294 -0.495859,-1.151863 -0.917792,-2.119042 -0.421934,-0.967179 -0.767152,-1.791508 -0.767152,-1.831842 0,-0.07496 0.939681,-0.508827 1.102031,-0.508827 0.09636,0 2.079402,3.974771 2.078076,4.16525 -6.89e-4,0.0988 -1.083526,0.654996 -1.275194,0.654996 -0.03813,0 -0.137116,-0.162241 -0.219969,-0.360535 z"
     id="path66" />
  <path
     style="fill:#67a4a5;stroke-width:0.028101"
     d="m 52.065352,73.69062 c -0.385526,-1.209381 -0.676388,-2.238627 -0.646361,-2.287212 0.06717,-0.108687 1.169729,-0.491073 1.232713,-0.427527 0.07265,0.0733 1.601701,4.230084 1.601701,4.354284 0,0.08738 -1.240513,0.569801 -1.443094,0.561199 -0.0242,-10e-4 -0.359433,-0.991362 -0.744959,-2.200744 z"
     id="path67" />
  <path
     style="fill:#67a4a5;stroke-width:0.028101"
     d="m 53.381659,77.770551 c -0.282036,-0.882599 -0.512792,-1.650244 -0.512792,-1.705879 0,-0.130976 1.404315,-0.606327 1.491579,-0.504889 0.103134,0.119884 1.238949,3.226542 1.195523,3.269968 -0.0476,0.0476 -1.520962,0.551417 -1.602563,0.547996 -0.03243,-0.0014 -0.289711,-0.724597 -0.571747,-1.607196 z"
     id="path68" />
  <path
     style="fill:#67a4a5;stroke-width:0.028101"
     d="m 50.204621,80.284677 c -0.08559,-0.241224 -0.740237,-3.313532 -0.713407,-3.348069 0.05175,-0.06662 1.524932,-0.4176 1.568778,-0.373755 0.07908,0.07908 0.945638,3.355835 0.899636,3.401836 -0.02431,0.02431 -0.337344,0.111805 -0.695626,0.194427 -0.358281,0.08262 -0.732413,0.175109 -0.831403,0.205526 -0.09963,0.03061 -0.201411,-0.0051 -0.227978,-0.07997 z"
     id="path69" />
  <path
     style="fill:#67a4a5;stroke-width:0.028101"
     d="m 49.432864,76.790619 c -1.62e-4,-0.0141 -0.228324,-1.062792 -0.507027,-2.330423 -0.278702,-1.267631 -0.497788,-2.308651 -0.486857,-2.313378 0.01093,-0.0047 0.326475,-0.07927 0.701208,-0.165653 l 0.681333,-0.157057 0.589956,2.21404 c 0.324475,1.217721 0.594767,2.255314 0.600647,2.305761 0.0059,0.05045 -0.312368,0.176309 -0.707218,0.279693 -0.710279,0.185974 -0.871468,0.216846 -0.872042,0.167017 z"
     id="path70" />
  <path
     style="fill:#67a4a5;stroke-width:0.028101"
     d="m 45.807391,75.05092 c -0.154733,-1.298716 -0.266036,-2.3766 -0.24734,-2.395297 0.0187,-0.0187 0.333293,-0.06466 0.699102,-0.102136 l 0.665109,-0.06814 0.350837,2.139817 c 0.192961,1.1769 0.353639,2.230048 0.357063,2.34033 0.0063,0.204207 -0.0363,0.21837 -1.17884,0.391487 l -0.364598,0.05524 z"
     id="path71" />
  <path
     style="fill:#67a4a5;stroke-width:0.028101"
     d="m 46.549124,80.995514 c -0.0068,-0.0141 -0.111276,-0.814132 -0.232125,-1.777845 l -0.219726,-1.752206 0.770495,-0.111001 c 0.423772,-0.06105 0.78811,-0.09339 0.809641,-0.07185 0.03249,0.03249 0.614167,3.241028 0.624369,3.444044 0.0043,0.0849 -1.714137,0.348508 -1.752654,0.268863 z"
     id="path72" />
  <path
     style="fill:#67a4a5;stroke-width:0.028101"
     d="m 42.731987,80.249389 c -0.03723,-0.608408 -0.06768,-1.416653 -0.06768,-1.796101 v -0.689905 l 0.776816,-0.07279 c 0.427249,-0.04004 0.79515,-0.05446 0.817558,-0.03205 0.06163,0.06164 0.29223,3.458809 0.238431,3.512608 -0.02573,0.02573 -0.418178,0.07775 -0.872109,0.115609 l -0.82533,0.06883 z"
     id="path73" />
  <path
     style="fill:#67a4a5;stroke-width:0.028101"
     d="m 42.629423,76.021431 c -0.107446,-2.590636 -0.093,-3.070729 0.09455,-3.142699 0.08922,-0.03424 0.40376,-0.06225 0.698968,-0.06225 h 0.536743 l 0.163268,2.333029 c 0.123011,1.757776 0.134003,2.351651 0.04458,2.408553 -0.06528,0.04154 -0.422983,0.07623 -0.7949,0.07709 l -0.676213,0.0016 z"
     id="path74" />
  <path
     style="fill:#67a4a5;stroke-width:0.028101"
     d="m 39.220319,77.4983 c -0.02922,-0.07613 0.01838,-1.090114 0.105777,-2.253289 0.08739,-1.163174 0.158897,-2.185438 0.158897,-2.271697 0,-0.118925 0.117752,-0.156496 0.487152,-0.155434 0.953166,0.0027 0.948666,-0.0023 0.948666,1.071209 0,0.52037 -0.03023,1.576467 -0.06718,2.346882 l -0.06718,1.400755 h -0.756508 c -0.540407,0 -0.77168,-0.03954 -0.809626,-0.138426 z"
     id="path75" />
  <path
     style="fill:#67a4a5;stroke-width:0.028101"
     d="m 39.267443,81.254906 c -0.369225,-0.03921 -0.371152,-0.04195 -0.331011,-0.469912 0.02221,-0.236759 0.08035,-1.02145 0.129207,-1.74376 0.04886,-0.722309 0.11176,-1.336217 0.139783,-1.36424 0.02802,-0.02802 0.402374,-0.01911 0.83189,0.01982 l 0.78094,0.07077 v 0.841845 c 0,0.463015 -0.02999,1.264297 -0.06664,1.780627 l -0.06664,0.938781 -0.523074,-0.01724 c -0.287691,-0.0095 -0.690199,-0.03499 -0.894462,-0.05668 z"
     id="path76" />
  <path
     style="fill:#67a4a5;stroke-width:0.028101"
     d="m 35.799548,80.904718 c -0.306577,-0.05085 -0.578838,-0.113883 -0.605025,-0.140069 -0.02619,-0.02619 0.08194,-0.836161 0.240279,-1.799942 0.275208,-1.675127 0.297534,-1.749909 0.506752,-1.697398 0.120373,0.03021 0.482301,0.08589 0.804286,0.123735 0.321984,0.03784 0.585426,0.09985 0.585426,0.137791 0,0.03794 -0.09176,0.804622 -0.203909,1.703733 -0.11215,0.899112 -0.204452,1.669362 -0.205117,1.711667 -0.0015,0.09523 -0.393468,0.08144 -1.122692,-0.03952 z"
     id="path77" />
  <path
     style="fill:#67a4a5;stroke-width:0.028101"
     d="m 36.3826,77.287488 c -0.500267,-0.07991 -0.58951,-0.126677 -0.588389,-0.308352 0.0018,-0.283851 0.694344,-4.379716 0.750002,-4.435374 0.02382,-0.02382 0.348409,-0.01206 0.721299,0.02614 0.620517,0.06357 0.674082,0.08783 0.631959,0.286215 -0.02531,0.119215 -0.140521,1.047477 -0.256018,2.062806 -0.115497,1.015328 -0.234069,1.993059 -0.263494,2.172736 -0.05842,0.356733 -0.02686,0.350523 -0.995359,0.195824 z"
     id="path78" />
  <path
     style="fill:#67a4a5;stroke-width:0.028101"
     d="m 33.075091,76.637965 c -0.338443,-0.08686 -0.633781,-0.173787 -0.656307,-0.193161 -0.03757,-0.03231 1.116793,-4.446092 1.18794,-4.542172 0.03036,-0.041 1.151196,0.183646 1.272906,0.255129 0.05361,0.03149 -0.07531,0.67061 -0.789663,3.914949 -0.09111,0.413782 -0.216009,0.739034 -0.281622,0.733369 -0.06485,-0.0056 -0.394811,-0.08125 -0.733254,-0.168114 z"
     id="path79" />
  <path
     style="fill:#67a4a5;stroke-width:0.028101"
     d="m 32.189748,80.181658 -0.782786,-0.203127 0.245396,-0.888867 c 0.134968,-0.488877 0.34389,-1.258077 0.46427,-1.709334 0.120381,-0.451257 0.225029,-0.829437 0.232552,-0.840399 0.01191,-0.01735 1.144444,0.237918 1.45345,0.327601 0.134487,0.03903 -0.583589,3.461853 -0.733324,3.495504 -0.05322,0.01196 -0.449027,-0.06966 -0.879558,-0.181378 z"
     id="path80" />
  <path
     style="fill:#67a4a5;stroke-width:0.028101"
     d="m 28.541985,79.108881 -0.738445,-0.255145 0.312583,-0.839262 c 0.17192,-0.461593 0.452692,-1.220009 0.623937,-1.685368 0.171245,-0.465359 0.339808,-0.845341 0.374583,-0.844405 0.197905,0.0053 1.3936,0.502426 1.423376,0.591755 0.06382,0.191466 -1.008384,3.304065 -1.135267,3.295666 -0.06728,-0.0045 -0.454623,-0.122912 -0.860767,-0.263241 z"
     id="path81" />
  <path
     style="fill:#67a4a5;stroke-width:0.028101"
     d="m 29.848528,75.679521 c -0.308024,-0.109298 -0.597327,-0.236006 -0.642894,-0.281574 -0.07726,-0.07726 1.390628,-4.170251 1.563681,-4.360118 0.108447,-0.118983 1.351708,0.346632 1.299282,0.486596 -0.0232,0.06195 -0.349923,1.070272 -0.726044,2.24072 -0.406866,1.266124 -0.734511,2.125052 -0.808918,2.120594 -0.06879,-0.0041 -0.377083,-0.09692 -0.685107,-0.206218 z"
     id="path82" />
  <path
     style="fill:#67a4a5;stroke-width:0.028101"
     d="m 26.588271,74.351995 c -0.352545,-0.162437 -0.64099,-0.315368 -0.64099,-0.339847 0,-0.02448 0.464427,-0.991075 1.03206,-2.147992 l 1.03206,-2.103486 0.600668,0.259175 c 0.471162,0.203296 0.585854,0.295733 0.531956,0.428735 -0.465892,1.149669 -1.82126,4.212126 -1.861629,4.206353 -0.02922,-0.0042 -0.34158,-0.140502 -0.694125,-0.302938 z"
     id="path83" />
  <path
     style="fill:#67a4a5;stroke-width:0.028101"
     d="m 25.046203,77.681263 -0.747241,-0.343434 0.327376,-0.64538 c 0.180056,-0.354958 0.550224,-1.129967 0.822594,-1.722242 0.27237,-0.592275 0.495922,-1.02766 0.496783,-0.967523 8.61e-4,0.06014 0.290011,0.243341 0.642556,0.40712 0.352545,0.163778 0.653614,0.304112 0.669044,0.311853 0.04102,0.02058 -1.310002,3.15955 -1.393325,3.237253 -0.0388,0.03618 -0.406805,-0.08876 -0.817787,-0.277647 z"
     id="path84" />
  <path
     style="fill:#67a4a5;stroke-width:0.028101"
     d="m 23.50837,72.737704 c -0.586857,-0.346128 -0.623953,-0.389261 -0.501719,-0.583367 0.0726,-0.115282 0.635542,-1.026791 1.250989,-2.025576 l 1.118995,-1.815973 0.516079,0.301594 c 0.283844,0.165877 0.500835,0.360022 0.482203,0.431434 -0.03535,0.135502 -1.914076,3.590352 -2.116722,3.892518 -0.105536,0.157364 -0.173833,0.13909 -0.749825,-0.20063 z"
     id="path85" />
  <path
     style="fill:#67a4a5;stroke-width:0.028101"
     d="m 21.665467,75.917412 c -0.352545,-0.206861 -0.64099,-0.416611 -0.64099,-0.466112 0,-0.06391 1.412865,-2.437034 1.799808,-3.023051 0.02679,-0.04057 1.276944,0.709042 1.276944,0.765676 0,0.09502 -1.691101,3.109318 -1.741747,3.10457 -0.02916,-0.0027 -0.341471,-0.174222 -0.694015,-0.381083 z"
     id="path86" />
  <path
     style="fill:#67a4a5;stroke-width:0.028101"
     d="m 20.727995,70.919296 c -0.344599,-0.25368 -0.626544,-0.483384 -0.626544,-0.510455 0,-0.05088 2.500615,-3.385054 2.718022,-3.624049 0.09947,-0.109348 0.228513,-0.06128 0.688301,0.256396 l 0.565879,0.390975 -1.084083,1.589655 c -0.596245,0.874311 -1.208046,1.762694 -1.359556,1.974185 l -0.275474,0.384529 z"
     id="path87" />
  <path
     style="fill:#67a4a5;stroke-width:0.028101"
     d="m 18.536308,73.859712 -0.689542,-0.496429 1.083424,-1.447193 1.083424,-1.447192 0.633629,0.468464 c 0.348497,0.257656 0.622021,0.509166 0.607833,0.558912 -0.04229,0.148282 -1.876025,2.805049 -1.955775,2.833585 -0.0404,0.01445 -0.383745,-0.197111 -0.762993,-0.470147 z"
     id="path88" />
  <path
     style="fill:#67a4a5;stroke-width:0.028101"
     d="m 17.95332,68.717779 -0.558475,-0.500275 0.91743,-1.000642 c 0.504586,-0.550352 1.240488,-1.337737 1.635338,-1.749744 l 0.717909,-0.749104 0.477332,0.434048 0.477331,0.434049 -1.502915,1.814401 c -0.826604,0.99792 -1.525992,1.815107 -1.554196,1.815971 -0.0282,8.65e-4 -0.302593,-0.223552 -0.609754,-0.498704 z"
     id="path89" />
  <path
     style="fill:#67a4a5;stroke-width:0.028101"
     d="m 15.527866,71.452173 -0.623993,-0.544203 1.177739,-1.276391 c 0.647756,-0.702015 1.205706,-1.28749 1.23989,-1.301057 0.03418,-0.01357 0.320178,0.196197 0.635544,0.466142 l 0.573393,0.490809 -1.10542,1.326495 c -0.607981,0.729573 -1.143162,1.339076 -1.18929,1.354452 -0.04613,0.01538 -0.364667,-0.216935 -0.707863,-0.516247 z"
     id="path90" />
  <path
     style="fill:#67a4a5;stroke-width:0.028101"
     d="m 15.502735,66.320639 -0.540652,-0.547452 1.415902,-1.265344 c 0.778745,-0.695939 1.580675,-1.42003 1.782065,-1.609092 l 0.366164,-0.343749 0.443162,0.525564 0.443162,0.525564 -1.628591,1.630981 c -0.895725,0.897039 -1.653784,1.63098 -1.684576,1.63098 -0.03079,0 -0.299278,-0.246353 -0.596636,-0.547452 z"
     id="path91" />
  <path
     style="fill:#67a4a5;stroke-width:0.028101"
     d="m 12.891344,68.931749 c -0.321383,-0.336937 -0.584333,-0.651987 -0.584333,-0.700112 0,-0.04812 0.565353,-0.593257 1.25634,-1.211405 0.690988,-0.618148 1.269883,-1.153564 1.286433,-1.189813 0.01655,-0.03625 0.291039,0.207668 0.609973,0.542037 l 0.57988,0.607944 -1.28198,1.281981 -1.28198,1.28198 z"
     id="path92" />
  <path
     style="fill:#67a4a5;stroke-width:0.028101"
     d="m 13.135487,63.564843 c -0.173626,-0.236095 -0.313035,-0.454785 -0.309797,-0.485978 0.0068,-0.06573 3.598009,-2.694783 3.743123,-2.740287 0.05331,-0.01672 0.202499,0.118735 0.331527,0.301005 l 0.234596,0.331399 -0.337155,0.288046 c -0.185435,0.158425 -1.014282,0.838629 -1.841882,1.511563 l -1.504728,1.223516 z"
     id="path93" />
  <path
     style="fill:#67a4a5;stroke-width:0.028101"
     d="M 10.28167,65.868147 C 10.117175,65.65662 9.9523327,65.431186 9.915355,65.367182 c -0.066952,-0.115886 2.523283,-2.109393 2.767318,-2.129794 0.06659,-0.0056 0.257157,0.17087 0.423491,0.392081 l 0.302427,0.402202 -1.345618,1.107323 c -0.74009,0.609028 -1.376353,1.108769 -1.413919,1.110535 -0.03756,0.0018 -0.202888,-0.169855 -0.367384,-0.381382 z"
     id="path94" />
  <path
     style="fill:#67a4a5;stroke-width:0.028101"
     d="M 11.507374,61.247155 C 11.402927,61.09526 11.21556,60.801582 11.091003,60.594536 l -0.226468,-0.376445 2.035164,-1.223272 2.035163,-1.223271 0.373208,0.570667 c 0.205264,0.313866 0.363956,0.5767 0.352649,0.584073 -0.01131,0.0074 -0.907708,0.594725 -1.992,1.305224 l -1.971441,1.291816 z"
     id="path95" />
  <path
     style="fill:#67a4a5;stroke-width:0.028101"
     d="m 8.1666193,62.84505 -0.4614481,-0.73599 1.506092,-0.901778 c 0.8283508,-0.495977 1.5341458,-0.902037 1.5684338,-0.902354 0.127859,-0.0012 0.829342,1.250895 0.7442,1.328322 -0.04875,0.04433 -0.720252,0.50072 -1.492231,1.014196 L 8.6280675,63.58104 Z"
     id="path96" />
  <path
     style="fill:#67a4a5;stroke-width:0.028101"
     d="m 9.5326945,57.832572 c -0.1737267,-0.34415 -0.3013071,-0.638454 -0.283512,-0.654007 0.051674,-0.04516 4.2011315,-2.002134 4.2452215,-2.002134 0.05633,0 0.576882,1.040043 0.537356,1.073607 -0.06883,0.05844 -4.0994161,2.208263 -4.1401633,2.208263 -0.023669,0 -0.1851755,-0.281578 -0.3589022,-0.625729 z"
     id="path97" />
  <path
     style="fill:#67a4a5;stroke-width:0.028101"
     d="M 6.2780761,59.533222 C 6.0967479,59.165508 5.9483885,58.839055 5.9483885,58.80777 c 0,-0.06656 3.1883611,-1.60713 3.2294494,-1.560427 0.015259,0.01734 0.1547273,0.285368 0.3099284,0.595607 0.1552012,0.310239 0.3338205,0.597978 0.3969319,0.63942 0.079146,0.05197 0.072568,0.07583 -0.021201,0.07692 -0.074772,8.63e-4 -0.8184453,0.370781 -1.6526079,0.822038 -0.8341627,0.451257 -1.5361144,0.820467 -1.5598927,0.820467 -0.023778,0 -0.1915927,-0.300857 -0.3729208,-0.668572 z"
     id="path98" />
  <path
     style="fill:#67a4a5;stroke-width:0.028101"
     d="M 8.189726,54.796704 C 8.0404869,54.413279 7.9481844,54.068629 7.9846092,54.030816 c 0.074867,-0.07772 4.3467988,-1.634187 4.3818358,-1.596508 0.01244,0.01338 0.135467,0.303145 0.273391,0.643925 l 0.250773,0.619601 -2.031683,0.850515 C 9.7415006,55.016132 8.7448543,55.420233 8.6441566,55.446352 8.4983949,55.484159 8.4057522,55.351718 8.189726,54.796704 Z"
     id="path99" />
  <path
     style="fill:#67a4a5;stroke-width:0.028101"
     d="m 4.7554779,56.105136 c -0.2840046,-0.7194 -0.301804,-0.821179 -0.1538376,-0.879666 0.6763386,-0.267339 3.2282115,-1.174367 3.243368,-1.15281 0.088341,0.125645 0.5645823,1.445833 0.5329704,1.477445 -0.058436,0.05843 -3.158773,1.369949 -3.2366772,1.369188 -0.035563,-3.47e-4 -0.2091834,-0.366718 -0.3858236,-0.814157 z"
     id="path100" />
  <path
     style="fill:#67a4a5;stroke-width:0.028101"
     d="M 7.1007913,51.56442 C 6.9883664,51.153723 6.925378,50.787979 6.9608171,50.751656 c 0.035439,-0.03632 1.0105363,-0.307775 2.1668825,-0.603226 1.1563464,-0.295452 2.1573464,-0.558045 2.2244464,-0.583542 0.132025,-0.05017 0.561697,1.202242 0.452936,1.32022 -0.03418,0.03707 -0.985168,0.349812 -2.1133111,0.694971 -1.1281426,0.345159 -2.1266339,0.65085 -2.2188695,0.679313 -0.1335067,0.0412 -0.2093802,-0.100507 -0.3721101,-0.694972 z"
     id="path101" />
  <path
     style="fill:#67a4a5;stroke-width:0.028101"
     d="m 3.5936656,52.652947 c -0.1150807,-0.372588 -0.2092377,-0.75504 -0.2092377,-0.849893 0,-0.137053 0.3496436,-0.262446 1.7030786,-0.610775 0.9366933,-0.241074 1.7130343,-0.423976 1.7252024,-0.406449 0.012168,0.01753 0.1182653,0.369599 0.2357714,0.782381 0.1523657,0.535239 0.1796753,0.762579 0.09521,0.792581 C 6.679163,52.52579 3.995753,53.33038 3.9099915,53.33038 c -0.058898,0 -0.2012448,-0.304845 -0.3163259,-0.677433 z"
     id="path102" />
  <path
     style="fill:#67a4a5;stroke-width:0.028101"
     d="m 6.2929886,48.049193 c -0.085301,-0.570777 -0.076723,-0.672687 0.059965,-0.712407 0.087728,-0.02549 1.121913,-0.193827 2.2981883,-0.374076 1.7017581,-0.260773 2.1552541,-0.300912 2.2198001,-0.196476 0.08882,0.143715 0.232195,0.930791 0.179207,0.98378 -0.02577,0.02577 -4.5356127,0.965237 -4.6335358,0.965237 -0.013247,0 -0.068878,-0.299726 -0.1236246,-0.666058 z"
     id="path103" />
  <path
     style="fill:#67a4a5;stroke-width:0.028101"
     d="m 2.6724505,48.708651 c -0.071212,-0.39848 -0.1117022,-0.742283 -0.089978,-0.764008 0.035946,-0.03595 3.2781117,-0.562652 3.4634347,-0.562652 0.081845,0 0.3188902,1.249645 0.251021,1.323322 -0.040679,0.04416 -3.1952687,0.720138 -3.3832281,0.724972 -0.061475,0.0016 -0.1700377,-0.323154 -0.2412496,-0.721634 z"
     id="path104" />
  <path
     style="fill:#67a4a5;stroke-width:0.028101"
     d="m 5.9104712,45.202625 c -0.034012,-0.126916 -0.06247,-0.466254 -0.063241,-0.754083 l -0.0014,-0.523327 1.0512238,-0.06567 c 0.5781731,-0.03612 1.6325168,-0.09572 2.3429859,-0.132446 l 1.2917621,-0.06677 0.06974,0.593348 c 0.03836,0.326341 0.0506,0.612482 0.02721,0.635869 -0.02961,0.02961 -4.4163247,0.543841 -4.6393032,0.543841 -0.00943,0 -0.044966,-0.10384 -0.078978,-0.230756 z"
     id="path105" />
  <path
     style="fill:#67a4a5;stroke-width:0.028101"
     d="m 2.2184252,45.363986 c -0.035584,-0.259614 -0.064698,-0.64461 -0.064698,-0.855546 v -0.383521 l 1.5127367,-0.06855 c 0.8320052,-0.0377 1.6334621,-0.09174 1.7810155,-0.120085 0.2641473,-0.05074 0.2693911,-0.04024 0.3405013,0.681411 0.039722,0.403119 0.048903,0.756262 0.020402,0.784764 -0.028501,0.0285 -0.6432398,0.114337 -1.3660854,0.190747 -0.7228457,0.07641 -1.5043692,0.1623 -1.736719,0.190867 l -0.4224541,0.05194 z"
     id="path106" />
  <path
     style="fill:#67a4a5;stroke-width:0.028101"
     d="m 5.7432717,41.135143 v -0.707729 l 0.7948277,0.0412 c 0.4371553,0.02266 1.5189759,0.06918 2.4040459,0.103373 l 1.6092177,0.06217 -0.05957,0.527919 c -0.03276,0.290355 -0.06464,0.533044 -0.07084,0.539307 -0.0062,0.0063 -1.061212,0.04066 -2.3444742,0.07644 l -2.3332041,0.06505 z"
     id="path107" />
  <path
     style="fill:#67a4a5;stroke-width:0.028101"
     d="m 2.0511684,41.059291 v -0.784546 l 0.9387814,0.06664 c 0.5163296,0.03665 1.3239772,0.06664 1.7947724,0.06664 h 0.855991 v 0.717909 0.717909 H 3.8459408 2.0511684 Z"
     id="path108" />
  <path
     style="fill:#67a4a5;stroke-width:0.028101"
     d="m 7.6645252,38.685593 -1.8221287,-0.154867 0.048485,-0.317695 c 0.026667,-0.174731 0.076168,-0.535243 0.110003,-0.801137 0.058176,-0.457176 0.076531,-0.480869 0.3378261,-0.436079 0.1519693,0.02605 1.1993336,0.167656 2.3274763,0.314679 1.1281426,0.147023 2.0627931,0.277965 2.0770021,0.290982 0.01421,0.01302 -0.0039,0.308179 -0.04025,0.655916 l -0.06608,0.63225 -0.575101,-0.01459 c -0.3163053,-0.008 -1.3950587,-0.08428 -2.3972296,-0.169459 z"
     id="path109" />
  <path
     style="fill:#67a4a5;stroke-width:0.028101"
     d="m 3.9959845,38.368682 -1.7985662,-0.142006 0.091944,-0.832299 c 0.050569,-0.457765 0.1110094,-0.852573 0.134311,-0.877351 0.049459,-0.05259 3.4286991,0.376363 3.4961307,0.443794 0.024997,0.025 0.00704,0.383944 -0.039902,0.797659 L 5.79455,38.510688 Z"
     id="path110" />
  <path
     style="fill:#67a4a5;stroke-width:0.028101"
     d="M 8.4423754,35.601447 C 7.3603579,35.396501 6.4456648,35.198691 6.409724,35.16187 c -0.071542,-0.0733 0.1420733,-1.323863 0.2463531,-1.442225 0.049746,-0.05646 4.4944029,0.899053 4.5971419,0.988297 0.01269,0.01102 -0.03007,0.305797 -0.09502,0.655053 -0.115144,0.619156 -0.125963,0.634713 -0.433305,0.623046 -0.173367,-0.0066 -1.2005001,-0.179648 -2.2825186,-0.384594 z"
     id="path111" />
  <path
     style="fill:#67a4a5;stroke-width:0.028101"
     d="M 4.615129,34.912519 C 3.9100399,34.779767 3.1899333,34.645815 3.0148923,34.614848 l -0.3182565,-0.0563 0.1644188,-0.810985 c 0.09043,-0.446042 0.1923703,-0.838538 0.2265332,-0.872213 0.068408,-0.06743 3.2748831,0.648455 3.4006936,0.759249 0.043109,0.03796 0.00349,0.400657 -0.088047,0.805984 -0.126209,0.558871 -0.2071089,0.734102 -0.3347761,0.725134 -0.092592,-0.0065 -0.7452405,-0.120441 -1.4503297,-0.253194 z"
     id="path112" />
  <path
     style="fill:#67a4a5;stroke-width:0.028101"
     d="M 9.6230501,31.962659 C 8.400704,31.615575 7.3737182,31.304557 7.3408597,31.271507 c -0.048627,-0.04891 0.1128409,-0.615179 0.3978482,-1.395257 0.030594,-0.08374 0.7309599,0.105596 2.2295356,0.60272 1.2017115,0.398645 2.2138285,0.753569 2.2491485,0.788719 0.03532,0.03515 -0.03391,0.347886 -0.153837,0.69497 l -0.218057,0.63106 z"
     id="path113" />
  <path
     style="fill:#67a4a5;stroke-width:0.028101"
     d="M 5.4099568,30.787754 C 4.351717,30.480475 3.7946616,30.270875 3.7946616,30.179976 c 0,-0.133596 0.4063228,-1.476961 0.4691837,-1.551194 0.039078,-0.04615 3.2477781,1.012405 3.3512524,1.105581 0.094836,0.0854 -0.3626756,1.474807 -0.4947462,1.502489 -0.052305,0.01096 -0.8219824,-0.191131 -1.7103947,-0.449098 z"
     id="path114" />
  <path
     style="fill:#67a4a5;stroke-width:0.028101"
     d="M 10.358401,29.414181 C 9.2020545,28.958215 8.2434808,28.57528 8.228237,28.563213 c -0.015244,-0.01207 0.1096632,-0.340217 0.2775711,-0.729224 0.1810376,-0.419426 0.3592798,-0.695068 0.4379497,-0.677267 0.3716278,0.0841 4.1830342,1.830296 4.1833512,1.916609 8.08e-4,0.219981 -0.454474,1.181042 -0.556935,1.175642 -0.06013,-0.0032 -1.055427,-0.378826 -2.211773,-0.834792 z"
     id="path115" />
  <path
     style="fill:#67a4a5;stroke-width:0.028101"
     d="M 6.3826628,27.868182 C 4.6198383,27.168828 4.725312,27.31546 5.2038113,26.229317 c 0.1428881,-0.324341 0.2906372,-0.589711 0.3283314,-0.589711 0.066837,0 3.0976154,1.331637 3.1710093,1.393251 0.080057,0.06721 -0.5378851,1.477699 -0.642879,1.467413 -0.061597,-0.006 -0.816522,-0.290474 -1.6776102,-0.632088 z"
     id="path116" />
  <path
     style="fill:#67a4a5;stroke-width:0.028101"
     d="m 11.761392,26.496756 c -1.174401,-0.588733 -2.1201711,-1.103202 -2.1017112,-1.143264 0.2702651,-0.586541 0.7263072,-1.361227 0.7865202,-1.336076 0.489832,0.204605 4.013301,2.29686 4.009698,2.38098 -0.0027,0.06213 -0.129577,0.350517 -0.282036,0.64087 l -0.277197,0.527913 z"
     id="path117" />
  <path
     style="fill:#67a4a5;stroke-width:0.028101"
     d="M 7.8642267,24.553105 C 7.0282988,24.130685 6.3591051,23.752364 6.3771296,23.712392 6.3951541,23.672421 6.588777,23.304945 6.8074028,22.89578 l 0.3975014,-0.743936 0.3204075,0.193305 c 1.0697863,0.645412 2.7194953,1.550963 2.8255033,1.550963 0.08939,0 0.08428,0.04052 -0.01803,0.142824 -0.07855,0.07855 -0.277992,0.401503 -0.4431983,0.717665 -0.1652064,0.316163 -0.3465265,0.572524 -0.4029336,0.569691 -0.056407,-0.0028 -0.7864994,-0.350767 -1.6224274,-0.773187 z"
     id="path118" />
  <path
     style="fill:#67a4a5;stroke-width:0.028101"
     d="m 13.435153,23.737509 c -1.043532,-0.65671 -1.938482,-1.233121 -1.988779,-1.280914 -0.09028,-0.08578 0.431805,-0.998777 0.696979,-1.218852 0.100501,-0.08341 0.59791,0.215268 2.047438,1.229413 l 1.914687,1.339587 -0.178783,0.302655 c -0.09833,0.16646 -0.272254,0.419537 -0.386497,0.562392 l -0.207714,0.259736 z"
     id="path119" />
  <path
     style="fill:#67a4a5;stroke-width:0.028101"
     d="M 9.7943293,21.433295 C 8.9000362,20.861862 8.3640154,20.456246 8.3731049,20.357829 c 0.018799,-0.20354 0.759685,-1.281962 0.880721,-1.281962 0.050618,0 0.5390731,0.316855 1.0854561,0.704122 0.546383,0.387268 1.221678,0.848781 1.500655,1.025585 0.278977,0.176803 0.453764,0.321461 0.388416,0.321461 -0.06535,0 -0.306861,0.276908 -0.536693,0.615351 -0.229832,0.338442 -0.427695,0.613778 -0.439695,0.611857 -0.012,-0.0019 -0.667936,-0.416348 -1.4576357,-0.920948 z"
     id="path120" />
  <path
     style="fill:#67a4a5;stroke-width:0.028101"
     d="m 15.999114,21.420711 c -0.648682,-0.508948 -1.486291,-1.166366 -1.861353,-1.46093 l -0.681931,-0.53557 0.462158,-0.558766 c 0.254187,-0.307322 0.500447,-0.573177 0.547245,-0.59079 0.0468,-0.01761 0.888657,0.65492 1.870799,1.494518 l 1.785714,1.526541 -0.471605,0.525178 -0.471605,0.525178 z"
     id="path121" />
  <path
     style="fill:#67a4a5;stroke-width:0.028101"
     d="m 12.050615,18.349411 c -0.733293,-0.567959 -1.367509,-1.065696 -1.409368,-1.106082 -0.04186,-0.04039 0.180098,-0.382096 0.49324,-0.759356 l 0.569348,-0.685929 1.327172,1.141007 c 0.729945,0.627553 1.327172,1.175156 1.327172,1.216895 0,0.06126 -0.915264,1.229453 -0.961226,1.226857 -0.0072,-4.06e-4 -0.613046,-0.465432 -1.346338,-1.033392 z"
     id="path122" />
  <path
     style="fill:#67a4a5;stroke-width:0.028101"
     d="m 17.408977,18.484664 -1.718169,-1.610731 0.513135,-0.513135 0.513135,-0.513135 1.69084,1.68851 1.69084,1.688511 -0.430241,0.438383 c -0.236632,0.241111 -0.455245,0.437021 -0.485806,0.435356 -0.03056,-0.0017 -0.828741,-0.727857 -1.773734,-1.613759 z"
     id="path123" />
  <path
     style="fill:#67a4a5;stroke-width:0.028101"
     d="m 14.323593,15.561919 -1.316567,-1.255019 0.571503,-0.559071 0.571502,-0.559072 0.318909,0.302676 c 0.175399,0.166471 0.737809,0.755726 1.249799,1.309455 l 0.930892,1.00678 -0.504736,0.504635 -0.504736,0.504635 z"
     id="path124" />
  <path
     style="fill:#67a4a5;stroke-width:0.028101"
     d="m 16.867117,13.262904 c -0.61842,-0.705618 -1.13774,-1.318606 -1.154046,-1.362195 -0.03464,-0.09262 1.143265,-1.134463 1.274274,-1.127079 0.08717,0.0049 2.102497,2.495614 2.178982,2.692957 0.02155,0.0556 -0.0541,0.175115 -0.16812,0.265586 -0.114016,0.09047 -0.387164,0.310559 -0.606996,0.489084 l -0.399695,0.324591 z"
     id="path125" />
  <path
     style="fill:#67a4a5;stroke-width:0.028101"
     d="m 19.608921,16.383708 -1.554559,-1.769133 0.536392,-0.484239 c 0.295015,-0.266331 0.594882,-0.474012 0.666371,-0.461513 0.07149,0.0125 0.775598,0.830374 1.564687,1.817499 l 1.434708,1.794772 -0.487823,0.431933 c -0.268304,0.237563 -0.514238,0.433706 -0.546521,0.435873 -0.03228,0.0022 -0.758248,-0.792169 -1.613255,-1.765192 z"
     id="path126" />
  <path
     style="fill:#67a4a5;stroke-width:0.028101"
     d="m 22.123879,14.386108 -1.380812,-1.920682 0.622246,-0.438162 c 0.342235,-0.240989 0.647846,-0.437642 0.679136,-0.437006 0.03129,6.36e-4 0.641182,0.896799 1.355316,1.991474 l 1.298425,1.990318 -0.553299,0.367369 c -0.304314,0.202054 -0.572851,0.36737 -0.596749,0.36737 -0.0239,0 -0.664817,-0.864306 -1.424263,-1.920681 z"
     id="path127" />
  <path
     style="fill:#67a4a5;stroke-width:0.028101"
     d="m 19.626318,10.942497 -1.039205,-1.4558429 0.728831,-0.484723 c 0.400857,-0.2665976 0.762138,-0.4512027 0.802846,-0.4102337 0.04071,0.040969 0.489014,0.707076 0.996236,1.4802376 l 0.92222,1.405748 -0.652961,0.465943 c -0.359128,0.256269 -0.667766,0.463416 -0.685862,0.460328 -0.01809,-0.0031 -0.500543,-0.660744 -1.072105,-1.461457 z"
     id="path128" />
  <path
     style="fill:#67a4a5;stroke-width:0.028101"
     d="M 22.857834,9.3016156 C 22.455302,8.6136869 22.040955,7.90904 21.937063,7.7357337 L 21.748168,7.4206313 22.556464,6.989953 23.364761,6.5592747 24.001867,7.8178475 c 0.350408,0.6922151 0.724751,1.4040231 0.831874,1.5817956 l 0.194769,0.3232227 -0.7194,0.4147642 -0.719399,0.414765 z"
     id="path129" />
  <path
     style="fill:#67a4a5;stroke-width:0.028101"
     d="m 24.926886,12.845442 c -0.586079,-1.001226 -1.126217,-1.914971 -1.200306,-2.030544 -0.124829,-0.194724 -0.09393,-0.233554 0.421377,-0.529531 0.955683,-0.5489158 0.805261,-0.6708139 1.978801,1.603563 0.578173,1.120527 1.050559,2.076816 1.049746,2.125087 -0.0015,0.0885 -0.9557,0.651837 -1.104116,0.651837 -0.04395,0 -0.559422,-0.819185 -1.145502,-1.820412 z"
     id="path130" />
  <path
     style="fill:#67a4a5;stroke-width:0.028101"
     d="m 27.671827,11.168647 -0.993252,-2.1580902 0.678272,-0.30432 c 0.37305,-0.1673759 0.728505,-0.2850437 0.789901,-0.2614839 0.08883,0.034089 1.656273,3.7656341 1.78075,4.2393641 0.01744,0.06639 -0.174578,0.211964 -0.426717,0.323497 -0.883205,0.390684 -0.733478,0.541231 -1.828954,-1.838967 z"
     id="path131" />
  <path
     style="fill:#67a4a5;stroke-width:0.028101"
     d="M 26.235696,8.0251966 C 26.006763,7.5316341 25.668262,6.7976596 25.483472,6.394142 L 25.147488,5.6604736 25.903999,5.3429182 c 0.416081,-0.1746555 0.798768,-0.3175555 0.850417,-0.3175555 0.08268,0 1.347767,3.0092706 1.346922,3.2039296 -2.79e-4,0.064116 -1.275962,0.6932904 -1.405681,0.6932904 -0.02405,0 -0.231028,-0.4038237 -0.459961,-0.8973861 z"
     id="path132" />
  <path
     style="fill:#67a4a5;stroke-width:0.028101"
     d="M 29.356557,6.0765865 C 29.069061,5.2445813 28.803662,4.4861997 28.766781,4.3912941 c -0.05514,-0.1418932 0.07566,-0.2178649 0.736088,-0.4275376 0.44173,-0.14024 0.832058,-0.2241195 0.867397,-0.1863988 0.05862,0.062577 1.012611,3.1968122 1.012611,3.3268427 0,0.063123 -1.206583,0.4851229 -1.387065,0.4851229 -0.0641,0 -0.35176,-0.6807316 -0.639255,-1.5127368 z"
     id="path133" />
  <path
     style="fill:#67a4a5;stroke-width:0.028101"
     d="m 31.349488,11.768579 c -0.525552,-1.398376 -1.395309,-4.0154448 -1.349663,-4.0610905 0.02953,-0.029532 0.363764,-0.1541621 0.742738,-0.2769562 l 0.689044,-0.223262 0.638101,2.1139969 c 0.350955,1.1626988 0.651512,2.1995988 0.667904,2.3042238 0.02367,0.151047 -0.09693,0.229947 -0.585547,0.383083 -0.338442,0.106072 -0.620618,0.193537 -0.627056,0.194368 -0.0064,8.31e-4 -0.08542,-0.194633 -0.175521,-0.434363 z"
     id="path134" />
  <path
     style="fill:#67a4a5;stroke-width:0.028101"
     d="M 32.756138,4.9296378 C 32.393855,3.4055914 32.361453,3.1756714 32.502791,3.1319631 c 0.08914,-0.027565 0.472349,-0.1145959 0.851583,-0.1934017 0.624479,-0.1297684 0.694004,-0.1275902 0.737099,0.023094 0.02617,0.091507 0.167411,0.7894193 0.313866,1.5509156 0.146454,0.7614963 0.286898,1.4812393 0.312095,1.5994289 0.04013,0.1882121 -0.02714,0.2306866 -0.541868,0.3421283 -0.323225,0.069981 -0.681357,0.1487994 -0.795849,0.1751522 -0.191375,0.04405 -0.241674,-0.093045 -0.623579,-1.6996426 z"
     id="path135" />
  <path
     style="fill:#67a4a5;stroke-width:0.028101"
     d="m 34.310618,11.267423 c -0.161829,-0.462335 -1.071817,-4.4315692 -1.03109,-4.4974664 0.06684,-0.1081504 1.377826,-0.3503545 1.458689,-0.2694921 0.08305,0.083049 0.94302,4.5042335 0.892421,4.5880135 -0.02108,0.0349 -0.21241,0.09256 -0.425187,0.128143 -0.212776,0.03558 -0.490146,0.09303 -0.616377,0.127665 -0.147501,0.04047 -0.246999,0.013 -0.278456,-0.07686 z"
     id="path136" />
  <path
     style="fill:#67a4a5;stroke-width:0.028101"
     d="M 36.31182,4.3085859 C 36.179525,3.3463437 36.097044,2.5332952 36.128528,2.5018114 c 0.06897,-0.068969 1.610302,-0.2823813 1.662495,-0.2301886 0.02833,0.028326 0.36071,3.2537947 0.36071,3.5003416 0,0.03004 -0.242294,0.084467 -0.538432,0.1209485 -0.296137,0.036482 -0.655997,0.088577 -0.799689,0.1157674 l -0.261257,0.049437 z"
     id="path137" />
  <path
     style="fill:#67a4a5;stroke-width:0.028101"
     d="m 37.228707,10.778231 c 0,-0.04831 -0.138454,-1.0448794 -0.307675,-2.2146027 -0.169221,-1.1697233 -0.307675,-2.2089159 -0.307675,-2.3093168 0,-0.1509178 0.125442,-0.1951446 0.723983,-0.2552538 0.398191,-0.039989 0.750328,-0.046362 0.782526,-0.014164 0.06322,0.063218 0.430796,3.666504 0.437829,4.2919413 0.0041,0.360987 -0.01492,0.382951 -0.380322,0.440167 -0.211527,0.03312 -0.51151,0.08021 -0.66663,0.104641 -0.15512,0.02443 -0.282036,0.0049 -0.282036,-0.04341 z"
     id="path138" />
</svg>
