<?xml version="1.0" encoding="UTF-8" standalone="no"?>
<svg
   id="Layer_2"
   data-name="Layer 2"
   width="47.38"
   height="47.38"
   viewBox="0 0 47.38 47.38"
   version="1.1"
   sodipodi:docname="x-pressed.svg"
   inkscape:version="1.3.2 (091e20e, 2023-11-25, custom)"
   xmlns:inkscape="http://www.inkscape.org/namespaces/inkscape"
   xmlns:sodipodi="http://sodipodi.sourceforge.net/DTD/sodipodi-0.dtd"
   xmlns="http://www.w3.org/2000/svg"
   xmlns:svg="http://www.w3.org/2000/svg">
  <sodipodi:namedview
     id="namedview2"
     pagecolor="#ffffff"
     bordercolor="#000000"
     borderopacity="0.25"
     inkscape:showpageshadow="2"
     inkscape:pageopacity="0.0"
     inkscape:pagecheckerboard="0"
     inkscape:deskcolor="#d1d1d1"
     inkscape:zoom="17.159138"
     inkscape:cx="18.066175"
     inkscape:cy="21.242325"
     inkscape:window-width="1920"
     inkscape:window-height="1009"
     inkscape:window-x="2552"
     inkscape:window-y="157"
     inkscape:window-maximized="1"
     inkscape:current-layer="Layer_2" />
  <defs
     id="defs1">
    <style
       id="style1">
      .cls-1 {
        fill: #ff8e43;
      }

      .cls-1, .cls-2 {
        stroke-width: 0px;
      }

      .cls-2 {
        fill: #fff;
      }
    </style>
  </defs>
  <g
     id="Layer_1-2"
     data-name="Layer 1">
    <g
       id="g2">
      <g
         id="X-2">
        <path
           class="cls-2"
           d="m23.68,0c13.08,0,23.69,10.6,23.7,23.68,0,13.08-10.6,23.69-23.68,23.7C10.62,47.39,0,36.78,0,23.7h0C0,10.61,10.6.01,23.68,0Z"
           id="path1" />
      </g>
      <path
         class="cls-1"
         d="m30.8,38.84l-6.41-11c-.12-.25-.22-.51-.3-.77-.06-.26-.13-.51-.22-.76h-.09c-.11.28-.19.52-.27.78-.09.26-.2.51-.33.75l-6.53,11h-6.12l10.14-15.21-9.26-15.1h6.18l5.41,10c.42.71.76,1.47,1,2.26h.08c.3-.79.53-1.31.65-1.56s2.21-3.79,6.27-10.66h5.68l-9.46,15,9.58,15.29-6-.02Z"
         id="path2" />
    </g>
  </g>
  <path
     style="fill:#27a6db;stroke-width:0.0159682"
     d="m 10.643346,38.74029 c 0.024,-0.04007 2.294015,-3.449251 5.044485,-7.575967 2.750469,-4.126716 5.000853,-7.517807 5.000853,-7.535759 0,-0.02567 -8.803497,-14.4110913 -9.137116,-14.9305749 l -0.08421,-0.1311254 h 3.053134 3.053134 l 2.941044,5.4344223 c 2.559602,4.729597 3.433818,6.441771 3.436824,6.731107 4.17e-4,0.04007 0.0348,0.07285 0.0764,0.07285 0.04203,0 0.198505,-0.304316 0.352106,-0.684766 0.328666,-0.814062 0.59523,-1.283884 3.992631,-7.037067 l 2.615511,-4.4291264 2.812289,-0.015133 2.812288,-0.015133 -0.08575,0.1316894 c -1.349944,2.07304 -9.278216,14.735643 -9.277646,14.817738 4.44e-4,0.06411 2.130257,3.512705 4.732917,7.663554 l 4.73211,7.546999 -2.925452,0.01512 c -2.293214,0.01185 -2.939937,-7.46e-4 -2.992479,-0.05828 -0.07667,-0.08395 -6.24302,-10.674549 -6.421991,-11.029654 -0.06462,-0.128211 -0.200281,-0.501919 -0.301474,-0.830461 -0.101295,-0.328876 -0.215808,-0.597349 -0.25479,-0.597349 -0.03894,0 -0.160653,0.265424 -0.270467,0.589832 -0.234497,0.692733 -0.133795,0.515616 -3.966294,6.97606 l -2.943039,4.96108 -3.019325,0.0014 c -2.400172,0.0011 -3.010377,-0.01354 -2.975693,-0.07145 z"
     id="path3" />
</svg>
