<?xml version="1.0" encoding="UTF-8" standalone="no"?>
<svg
   id="Layer_2"
   data-name="Layer 2"
   width="47.38"
   height="47.38"
   viewBox="0 0 47.38 47.38"
   version="1.1"
   sodipodi:docname="x.svg"
   inkscape:version="1.3.2 (091e20e, 2023-11-25, custom)"
   xmlns:inkscape="http://www.inkscape.org/namespaces/inkscape"
   xmlns:sodipodi="http://sodipodi.sourceforge.net/DTD/sodipodi-0.dtd"
   xmlns="http://www.w3.org/2000/svg"
   xmlns:svg="http://www.w3.org/2000/svg">
  <sodipodi:namedview
     id="namedview2"
     pagecolor="#ffffff"
     bordercolor="#000000"
     borderopacity="0.25"
     inkscape:showpageshadow="2"
     inkscape:pageopacity="0.0"
     inkscape:pagecheckerboard="0"
     inkscape:deskcolor="#d1d1d1"
     inkscape:zoom="17.159138"
     inkscape:cx="23.660862"
     inkscape:cy="23.690001"
     inkscape:window-width="1920"
     inkscape:window-height="1009"
     inkscape:window-x="2552"
     inkscape:window-y="157"
     inkscape:window-maximized="1"
     inkscape:current-layer="Layer_2" />
  <defs
     id="defs1">
    <style
       id="style1">
      .cls-1 {
        fill: #141414;
      }

      .cls-1, .cls-2 {
        stroke-width: 0px;
      }

      .cls-2 {
        fill: #0071bc;
      }
    </style>
  </defs>
  <g
     id="Layer_1-2"
     data-name="Layer 1">
    <g
       id="g2">
      <g
         id="X">
        <path
           class="cls-1"
           d="m23.68,0c13.08,0,23.69,10.6,23.7,23.68,0,13.08-10.6,23.69-23.68,23.7C10.62,47.39,0,36.78,0,23.7h0C0,10.61,10.6.01,23.68,0Z"
           id="path1" />
      </g>
      <path
         class="cls-2"
         d="m30.8,38.83l-6.41-11c-.12-.24-.22-.5-.3-.76-.05-.26-.13-.51-.22-.76h-.09c-.11.27-.19.52-.27.77-.09.26-.2.51-.33.75l-6.53,11h-6.12l10.14-15.19-9.26-15.11h6.19l5.4,10c.42.71.76,1.48,1,2.27h.08c.3-.79.53-1.31.65-1.56s2.21-3.8,6.27-10.66h5.68l-9.46,15,9.58,15.28-6-.03Z"
         id="path2" />
    </g>
  </g>
  <path
     style="fill:#27a6db;stroke-width:0.0159682"
     d="M 23.048943,47.338254 C 19.80818,47.260352 16.448361,46.451032 13.532172,45.045834 12.310299,44.45706 11.71828,44.120773 10.606593,43.384003 6.1685306,40.442679 2.8056312,36.007898 1.174548,30.94561 0.61774395,29.217492 0.28561208,27.580513 0.11848419,25.740586 0.03818131,24.856524 0.03788951,22.528337 0.11797017,21.639415 0.54110421,16.942485 2.319869,12.538506 5.2920441,8.8291146 5.9743588,7.977559 7.847813,6.0878907 8.6834196,5.408388 12.442471,2.3515833 16.838224,0.56086679 21.67941,0.11415599 c 0.870687,-0.08034088 3.158018,-0.079132 4.05032,0.002141 3.618724,0.3296003 7.112493,1.47243651 10.185382,3.33170911 1.688658,1.0217339 2.964454,2.0315608 4.474888,3.5419956 1.510435,1.5104342 2.520262,2.7862302 3.541995,4.4748873 2.978456,4.922604 4.055405,10.762413 3.03368,16.450265 -0.588879,3.278237 -2.006407,6.666091 -3.913674,9.353575 -1.53785,2.166948 -3.616324,4.245422 -5.783272,5.783272 -4.05558,2.878184 -9.132584,4.40854 -14.219786,4.286253 z m -3.16484,-13.886691 c 1.76164,-2.964893 3.277302,-5.536145 3.368138,-5.713895 0.09083,-0.177749 0.249954,-0.566021 0.353597,-0.862825 0.103644,-0.296803 0.207778,-0.518523 0.231411,-0.49271 0.02363,0.02581 0.126987,0.322296 0.229676,0.658852 0.175183,0.574147 0.388323,0.958156 3.452983,6.221174 l 3.266275,5.609256 h 3.026191 c 2.405133,0 3.017328,-0.01495 2.983005,-0.07285 -0.02375,-0.04007 -2.179004,-3.480457 -4.789447,-7.645315 -3.695432,-5.895912 -4.733606,-7.592633 -4.689104,-7.663554 0.03144,-0.0501 2.140627,-3.39545 4.687091,-7.434114 2.546463,-4.038665 4.649769,-7.3758077 4.674012,-7.4158739 0.03503,-0.057889 -0.546313,-0.072847 -2.831161,-0.072847 H 30.971532 L 29.430148,11.1748 c -4.748078,8.033494 -4.767994,8.068411 -5.127533,8.989379 -0.106362,0.27245 -0.20977,0.514455 -0.229796,0.537789 -0.02003,0.02333 -0.161712,-0.273716 -0.314859,-0.66011 -0.153146,-0.386394 -0.664743,-1.415151 -1.136883,-2.286128 -0.47214,-0.870976 -1.788485,-3.307622 -2.925212,-5.414771 l -2.066775,-3.8311777 -3.139144,-5.991e-4 -3.139144,-5.991e-4 0.08541,0.1311254 c 0.434827,0.6675254 9.155337,14.9472315 9.155337,14.9917285 0,0.0324 -2.254755,3.441863 -5.010566,7.576592 -2.755811,4.134728 -5.030344,7.550701 -5.054515,7.591049 -0.03515,0.05867 0.576772,0.07034 3.05535,0.05828 l 3.099298,-0.01508 z"
     id="path3" />
  <path
     style="fill:#141414;stroke-width:0.0159682;fill-opacity:1"
     d="m 10.643346,38.74029 c 0.024,-0.04007 2.294015,-3.449251 5.044485,-7.575967 2.750469,-4.126716 5.000853,-7.51521 5.000853,-7.529987 0,-0.01478 -2.06139,-3.391335 -4.580866,-7.503461 -2.519477,-4.112127 -4.592807,-7.4962632 -4.607401,-7.5203029 -0.01459,-0.02404 1.348241,-0.043708 3.02852,-0.043708 h 3.055053 l 2.927153,5.4206289 c 2.627119,4.865014 3.275619,6.133317 3.404058,6.657483 0.0216,0.08815 0.07217,0.160264 0.112383,0.160264 0.04021,0 0.211745,-0.33437 0.381184,-0.743044 0.333908,-0.805363 0.672165,-1.39837 4.313196,-7.561568 l 2.272304,-3.846347 2.805939,-0.015132 c 2.24369,-0.012099 2.797182,-4.217e-4 2.762232,0.058278 -0.02404,0.040375 -2.127518,3.377771 -4.674396,7.416436 -2.546878,4.038664 -4.640842,7.382363 -4.653254,7.430443 -0.01241,0.04808 2.115351,3.496679 4.728362,7.663554 l 4.750929,7.576138 -2.924484,0.01512 c -1.608467,0.0083 -2.944215,-0.0048 -2.968329,-0.02914 -0.05556,-0.05608 -6.29217,-10.756587 -6.448427,-11.063938 -0.06375,-0.125382 -0.198693,-0.496774 -0.299886,-0.825316 -0.101295,-0.328876 -0.215808,-0.597349 -0.25479,-0.597349 -0.03894,0 -0.160392,0.264653 -0.269887,0.588119 -0.23469,0.693305 0.0033,0.274605 -3.850318,6.775023 l -3.059595,5.161082 -3.019325,0.0028 c -2.400462,0.0022 -3.010382,-0.01216 -2.975693,-0.07008 z"
     id="path4" />
  <path
     style="fill:#141414;fill-opacity:1;stroke-width:0.0159682"
     d="m 15.67788,31.233316 c 2.755942,-4.13685 5.010804,-7.553856 5.010804,-7.593348 0,-0.03949 -0.21458,-0.424655 -0.476846,-0.855917 -0.4997,-0.821693 -6.985133,-11.421294 -8.043981,-13.1468467 l -0.612725,-0.9985277 2.687311,-0.04117 c 1.478021,-0.022644 2.829698,-0.032245 3.003728,-0.021337 l 0.316416,0.019833 0.520192,0.9615867 c 4.105269,7.5886807 5.413446,10.0686097 5.70067,10.8068377 0.08809,0.226421 0.194895,0.411674 0.237334,0.411674 0.07991,0 0.158571,-0.142366 0.595715,-1.078142 0.353596,-0.756929 1.253771,-2.311126 5.392198,-9.309908 l 1.00796,-1.7046315 h 2.759121 2.759121 l -0.763166,1.2092682 c -5.717104,9.0589893 -8.555913,13.5914993 -8.555913,13.6605733 0,0.03091 0.02464,0.04097 0.05475,0.02236 0.03011,-0.01861 0.0511,0.01462 0.04664,0.07386 -0.01137,0.150945 1.392149,2.433957 6.581321,10.705391 1.186415,1.89112 2.292569,3.654758 2.45812,3.919194 l 0.301002,0.480793 H 33.748336 30.83902 l -0.140831,-0.247681 c -0.07746,-0.136225 -1.190411,-2.0441 -2.473233,-4.239723 -3.659189,-6.262912 -3.845544,-6.593841 -4.064489,-7.217697 -0.108559,-0.309328 -0.215736,-0.608308 -0.238172,-0.664401 -0.08432,-0.210812 -0.196971,-0.08856 -0.375909,0.407946 -0.277882,0.771046 -0.158426,0.562018 -4.812002,8.420179 l -2.096019,3.539399 -2.985644,9.89e-4 -2.985644,9.89e-4 z"
     id="path5" />
</svg>
