<?xml version="1.0" encoding="UTF-8" standalone="no"?>
<svg
   id="Layer_2"
   data-name="Layer 2"
   width="47.38"
   height="47.38"
   viewBox="0 0 47.38 47.38"
   version="1.1"
   sodipodi:docname="y.svg"
   inkscape:version="1.3.2 (091e20e, 2023-11-25, custom)"
   xmlns:inkscape="http://www.inkscape.org/namespaces/inkscape"
   xmlns:sodipodi="http://sodipodi.sourceforge.net/DTD/sodipodi-0.dtd"
   xmlns="http://www.w3.org/2000/svg"
   xmlns:svg="http://www.w3.org/2000/svg">
  <sodipodi:namedview
     id="namedview2"
     pagecolor="#ffffff"
     bordercolor="#000000"
     borderopacity="0.25"
     inkscape:showpageshadow="2"
     inkscape:pageopacity="0.0"
     inkscape:pagecheckerboard="0"
     inkscape:deskcolor="#d1d1d1"
     inkscape:zoom="17.159138"
     inkscape:cx="23.660862"
     inkscape:cy="23.690001"
     inkscape:window-width="1920"
     inkscape:window-height="1009"
     inkscape:window-x="2552"
     inkscape:window-y="157"
     inkscape:window-maximized="1"
     inkscape:current-layer="Layer_2" />
  <defs
     id="defs1">
    <style
       id="style1">
      .cls-1 {
        fill: #141414;
      }

      .cls-1, .cls-2 {
        stroke-width: 0px;
      }

      .cls-2 {
        fill: #fcee21;
      }
    </style>
  </defs>
  <g
     id="Layer_1-2"
     data-name="Layer 1">
    <g
       id="g2">
      <g
         id="Y">
        <path
           class="cls-1"
           d="m23.69,0c13.08,0,23.69,10.61,23.69,23.69s-10.61,23.69-23.69,23.69S0,36.77,0,23.69,10.61,0,23.69,0h0Z"
           id="path1" />
      </g>
      <path
         class="cls-2"
         d="m26.09,27.85v11h-5v-10.85L11.24,8.53h5.72l6.1,12.65c.18.36.33.73.44,1.12.1.34.17.61.25.83h0c.15-.66.38-1.3.69-1.91l6.38-12.69h5.31l-10.04,19.32Z"
         id="path2" />
    </g>
  </g>
  <path
     style="fill:#fcee21;stroke-width:0.0159682;fill-opacity:1"
     d="M 22.611858,47.318683 C 17.595959,47.099911 12.901247,45.31716 8.8291146,42.08488 7.9405245,41.379556 6.0204071,39.461388 5.2915305,38.550886 0.94681449,33.123536 -0.79707953,26.302242 0.41210003,19.464847 1.083627,15.667648 2.7838384,11.961684 5.2915305,8.8291146 6.0114935,7.9297483 7.9297483,6.0114935 8.8291146,5.2915305 14.256712,0.94661681 21.077448,-0.79713454 27.915154,0.41210003 31.712353,1.083627 35.418317,2.7838384 38.550886,5.2915305 c 0.899367,0.719963 2.817622,2.6382178 3.537584,3.5375841 2.987601,3.7320624 4.743373,8.0799794 5.173047,12.8103004 0.08033,0.88436 0.08059,3.21255 4.51e-4,4.101171 -0.428636,4.753168 -2.252881,9.220716 -5.290355,12.955995 -0.679503,0.835607 -2.569171,2.709061 -3.420727,3.391376 -2.268866,1.817945 -4.683998,3.138632 -7.388854,4.040511 -2.027851,0.676146 -4.183794,1.090688 -6.060805,1.165364 -0.423593,0.01685 -0.940632,0.03877 -1.148976,0.04872 -0.208343,0.0099 -0.81152,-7.98e-4 -1.340393,-0.02387 z m 3.496679,-13.938026 v -5.490758 l 4.997337,-9.614642 C 33.854409,12.987204 36.111691,8.626408 36.122054,8.5846 36.137344,8.52293 35.635966,8.508586 33.46505,8.508586 h -2.675847 l -3.392022,6.774815 c -2.60371,5.200335 -3.423079,6.887595 -3.525658,7.260093 l -0.133635,0.485276 -0.136319,-0.485276 c -0.07498,-0.266902 -0.205413,-0.65574 -0.289861,-0.864084 -0.08445,-0.208344 -1.541792,-3.257011 -3.238544,-6.774816 L 16.988162,8.5085857 h -2.902715 -2.902715 l 1.162793,2.2874113 c 0.639537,1.258076 2.857051,5.636302 4.92781,9.729392 l 3.765017,7.441982 v 5.452022 5.452022 h 2.535093 2.535092 z"
     id="path3" />
  <path
     style="fill:#141414;fill-opacity:1;stroke-width:0.0159682"
     d="M 21.09663,33.37606 V 27.938984 L 16.865755,19.578748 C 14.538773,14.980618 12.335756,10.621891 11.970161,9.8926878 L 11.305443,8.5668637 h 2.81718 2.817181 l 3.180287,6.5999813 c 2.567604,5.328495 3.221363,6.733034 3.393506,7.290623 0.117271,0.379852 0.222362,0.68144 0.233534,0.670197 0.01117,-0.01124 0.116818,-0.319063 0.234768,-0.684042 0.171499,-0.530676 0.878155,-1.984013 3.527896,-7.255609 l 3.313441,-6.5920113 2.629649,-0.015166 2.629649,-0.015166 -0.347752,0.6562241 c -0.191263,0.3609233 -2.448525,4.7003922 -5.016137,9.6432642 l -4.668386,8.98704 v 5.48047 5.480469 H 23.573445 21.09663 Z"
     id="path4" />
  <path
     style="fill:#f2ea22;fill-opacity:1;stroke-width:0.0159682"
     d="M 22.029078,47.26247 C 17.304393,46.899334 12.978448,45.230708 9.175815,42.304645 7.9368886,41.351311 5.9304702,39.335978 4.9900459,38.100277 2.2988315,34.56407 0.7085896,30.614155 0.19734761,26.195954 0.07225411,25.114884 0.05362524,22.56878 0.1630226,21.504576 0.63739103,16.889976 2.3233179,12.688675 5.1558857,9.0624451 6.0646471,7.8990562 8.1026113,5.8874955 9.2953385,4.9766215 12.779439,2.3158484 16.782329,0.70668245 21.184047,0.19734761 c 1.08107,-0.1250935 3.627174,-0.14372236 4.691378,-0.034325 3.040155,0.31251969 5.720073,1.08561629 8.333752,2.40410129 2.738496,1.3814496 4.651009,2.8267289 6.859697,5.183848 3.3701,3.5965821 5.520682,8.3020991 6.104309,13.3563541 0.127081,1.100533 0.127081,4.064817 0,5.165349 -0.576469,4.992263 -2.743409,9.760145 -6.043801,13.298076 -1.859864,1.993725 -3.589626,3.386057 -5.766368,4.641504 -2.765599,1.595075 -6.231366,2.698446 -9.400172,2.992665 -0.918829,0.08531 -3.148207,0.117927 -3.933764,0.05755 z m 4.079459,-13.847883 v -5.456828 l 0.808693,-1.5511 c 1.190114,-2.282677 7.746239,-14.914542 8.536181,-16.4468921 0.373417,-0.7243627 0.678939,-1.3472086 0.678939,-1.3841021 0,-0.049621 -0.702396,-0.067079 -2.698844,-0.067079 H 30.734662 L 27.550546,14.904594 C 24.17861,21.677881 24.140183,21.757 23.892869,22.43544 l -0.158755,0.4355 -0.158816,-0.522917 C 23.378019,21.698457 22.746003,20.360745 17.552977,9.6012979 L 17.025581,8.5085857 h -2.938649 -2.938651 l 1.469164,2.8993293 c 0.808041,1.594632 3.033306,5.988332 4.945036,9.763778 l 3.475871,6.864449 v 5.417637 5.417636 h 2.535093 2.535092 z"
     id="path5" />
  <path
     style="fill:#f2ea22;fill-opacity:1;stroke-width:0.0159682"
     d="m 22.605417,47.298855 c -0.01248,-0.01084 -0.301791,-0.03567 -0.642905,-0.05519 -0.341114,-0.01952 -0.800053,-0.06127 -1.019865,-0.09277 -0.219812,-0.0315 -0.504558,-0.07016 -0.63277,-0.08592 -0.401249,-0.0493 -1.485893,-0.26884 -2.214563,-0.448242 -0.384635,-0.0947 -0.751786,-0.182693 -0.815892,-0.195542 -0.06411,-0.01285 -0.26735,-0.07633 -0.451654,-0.141059 -0.184304,-0.06473 -0.335099,-0.102785 -0.335099,-0.08456 0,0.01823 -0.03484,0.0042 -0.07742,-0.03112 -0.04258,-0.03534 -0.127813,-0.07388 -0.189403,-0.08564 -0.06159,-0.01177 -0.177545,-0.04788 -0.257677,-0.08026 -0.241225,-0.09748 -0.840949,-0.319701 -0.903309,-0.334719 -0.03205,-0.0077 -0.189404,-0.07225 -0.349668,-0.143405 -0.160264,-0.07115 -0.501191,-0.222215 -0.757614,-0.335692 -0.836162,-0.370035 -1.217325,-0.570345 -2.241754,-1.178091 -0.303431,-0.180011 -0.577597,-0.337822 -0.609257,-0.350689 -0.03166,-0.01287 -0.08499,-0.04628 -0.118504,-0.07425 -0.170165,-0.141993 -0.743495,-0.514278 -0.792003,-0.514278 -0.03063,0 -0.05569,-0.02623 -0.05569,-0.05828 0,-0.03205 -0.03715,-0.05828 -0.08256,-0.05828 -0.04541,0 -0.091302,-0.02131 -0.1019869,-0.04736 C 9.945138,42.877461 9.7790457,42.740969 9.5867284,42.600196 9.0817427,42.230555 8.6557696,41.883926 8.1653243,41.44355 7.7179772,41.041873 6.1857645,39.498894 5.7914723,39.053019 5.6672137,38.912504 5.4934285,38.718482 5.405283,38.62186 5.3171376,38.525237 5.2444101,38.430403 5.2436663,38.411118 5.2429227,38.391832 5.1576911,38.280694 5.0542629,38.164144 4.9508347,38.047595 4.826874,37.893836 4.7787947,37.822457 4.7307154,37.751079 4.6192587,37.60025 4.5311133,37.487281 4.4429678,37.374312 4.3708488,37.264209 4.3708488,37.242608 c 0,-0.0216 -0.048478,-0.09131 -0.107729,-0.15491 C 4.2038689,37.0241 4.1448624,36.946907 4.1319943,36.916159 4.1191263,36.885411 3.8987971,36.525023 3.642374,36.115296 2.8248015,34.808936 2.3844034,33.953641 1.8656924,32.66481 1.7624908,32.408387 1.6437607,32.119911 1.6018478,32.023752 c -0.08327,-0.191043 -0.5738764,-1.672059 -0.5695079,-1.7192 0.00149,-0.01603 -0.022712,-0.0947 -0.053771,-0.174834 C 0.9475096,30.049588 0.9116056,29.931573 0.8987821,29.867467 0.8758792,29.752973 0.67430025,28.900485 0.60250393,28.61449 c -0.0201165,-0.08013 -0.043701,-0.185032 -0.05241,-0.233112 -0.008709,-0.04808 -0.0311511,-0.166092 -0.0498712,-0.262251 C 0.43084594,27.762762 0.38879187,27.534747 0.38198939,27.47807 0.36688105,27.35219 0.27648157,26.772272 0.25480551,26.662178 0.10037793,25.877827 0.07155979,22.281429 0.21067545,21.154908 0.3326263,20.167383 0.56028702,18.906065 0.75775943,18.123876 c 0.0956487,-0.378864 0.18139751,-0.736969 0.19055298,-0.795788 0.009155,-0.05882 0.0327955,-0.133169 0.0525335,-0.165222 0.031333,-0.05088 0.2273372,-0.675069 0.2241773,-0.713905 -0.00259,-0.03178 0.030676,-0.142593 0.074348,-0.247681 0.01998,-0.04808 0.1445781,-0.375893 0.2768837,-0.728475 0.1323055,-0.352582 0.393011,-0.996253 0.5793455,-1.430381 0.3674098,-0.856001 0.5051226,-1.122039 1.194612,-2.307789 0.1277872,-0.219762 0.2589127,-0.445786 0.29139,-0.502274 C 3.7349463,11.070004 4.7385551,9.5940155 4.8057041,9.5203387 4.8389833,9.483824 4.9186619,9.3797331 4.9827676,9.2890246 5.417447,8.6739634 7.3822383,6.6263496 8.3628907,5.7664175 8.5552081,5.5977749 8.7518963,5.4239795 8.7999756,5.3802056 8.8792162,5.3080608 9.0279742,5.1916046 9.5189144,4.8173784 9.609828,4.748078 9.7147284,4.664381 9.7520263,4.631385 9.7893242,4.598389 9.9443629,4.4934886 10.096556,4.3982731 10.248751,4.3030575 10.37332,4.205485 10.373377,4.1814454 c 5.8e-5,-0.02404 0.03944,-0.043709 0.08752,-0.043709 0.04808,0 0.08742,-0.026225 0.08742,-0.058278 0,-0.032053 0.02766,-0.058278 0.06148,-0.058278 0.03381,0 0.210831,-0.1003848 0.393376,-0.2230773 0.475761,-0.3197689 1.527361,-0.9188256 2.138518,-1.218234 1.008319,-0.4939787 1.130884,-0.5513528 1.177194,-0.5510591 0.02565,1.626e-4 0.112207,-0.035366 0.192339,-0.078952 0.33008,-0.17954 2.670719,-0.99058983 3.053545,-1.05807702 0.06078,-0.0107145 0.313409,-0.0712866 0.561401,-0.13460454 0.374795,-0.0956937 1.303107,-0.29368998 1.775768,-0.37874714 0.311754,-0.0561013 1.506284,-0.20110087 1.894034,-0.22990957 0.511522,-0.0380047 3.574672,-0.0448397 3.788069,-0.008453 0.08013,0.0136636 0.329271,0.0416149 0.553641,0.0621139 0.22437,0.020499 0.552184,0.060519 0.728475,0.0889334 0.176291,0.0284143 0.438541,0.066927 0.58278,0.0855837 0.282575,0.0365502 0.279949,0.0360782 0.757613,0.13619852 0.176291,0.0369513 0.392873,0.0792081 0.481294,0.0939039 0.08842,0.0146958 0.206433,0.0404983 0.262251,0.0573389 0.05582,0.0168405 0.167049,0.0436564 0.247181,0.0595908 0.08013,0.0159343 0.303046,0.0720652 0.495363,0.12473517 0.192317,0.05267 0.389005,0.10423344 0.437085,0.11458542 0.04808,0.010352 0.199238,0.0591168 0.335909,0.10836616 0.136671,0.049249 0.26124,0.090579 0.276821,0.091843 0.01558,0.00126 0.03488,0.00431 0.0429,0.00676 0.008,0.00245 0.06251,0.013545 0.121107,0.02465 0.0586,0.011105 0.150383,0.039615 0.203973,0.063355 0.05359,0.02374 0.110548,0.047694 0.126574,0.05323 0.01603,0.00554 0.06848,0.026731 0.116556,0.0471 0.04808,0.020368 0.299867,0.1143472 0.559529,0.2088422 0.798203,0.2904791 2.550477,1.0688569 2.645761,1.1752734 0.01603,0.017899 0.252052,0.1523096 0.524501,0.2986902 0.27245,0.1463807 0.587151,0.3216426 0.699336,0.3894709 0.112185,0.067828 0.243311,0.1406482 0.29139,0.1618223 0.04808,0.021174 0.126755,0.071188 0.174834,0.1111431 0.04808,0.039955 0.181565,0.1249512 0.296634,0.1888814 0.11507,0.06393 0.420513,0.2698359 0.678762,0.4575683 0.25825,0.1877325 0.527682,0.3806694 0.59874,0.4287487 0.07106,0.048079 0.224553,0.17204 0.341102,0.2754682 0.11655,0.1034282 0.227688,0.1886598 0.246974,0.1894034 0.01928,7.438e-4 0.113171,0.073471 0.208634,0.1616167 0.09546,0.088146 0.354012,0.317615 0.574553,0.5099324 0.89495,0.780418 2.157965,2.1126422 3.115511,3.2862302 0.112186,0.1374965 0.230198,0.2804337 0.262251,0.3176384 0.03205,0.037204 0.175194,0.2381075 0.318092,0.4464513 0.142897,0.2083433 0.280579,0.3875483 0.305959,0.3982323 0.02538,0.01069 0.04615,0.05658 0.04615,0.101986 0,0.04541 0.02179,0.08256 0.04843,0.08256 0.02664,0 0.08552,0.07212 0.130851,0.160265 0.04533,0.08815 0.200387,0.34384 0.34457,0.56821 0.144182,0.22437 0.291241,0.460396 0.326799,0.524502 0.03556,0.06411 0.138189,0.247681 0.22807,0.407946 0.252634,0.450465 1.077566,2.133448 1.077566,2.198394 0,0.01677 0.05758,0.158395 0.127948,0.31472 0.07037,0.156326 0.13422,0.310454 0.141886,0.342507 0.0077,0.03205 0.108283,0.320529 0.223597,0.641058 0.239133,0.664702 0.245867,0.683995 0.259062,0.742233 0.0053,0.02359 0.05001,0.154719 0.09926,0.29139 0.04925,0.136671 0.09824,0.289634 0.108876,0.339917 0.01063,0.05028 0.08662,0.351872 0.168851,0.670197 0.160534,0.621411 0.320928,1.30438 0.361752,1.540359 0.01386,0.08013 0.03916,0.207145 0.05621,0.282251 0.01705,0.07511 0.04466,0.24557 0.06134,0.378807 0.01668,0.133238 0.05482,0.386488 0.08474,0.562779 0.164067,0.966572 0.221875,3.571561 0.114454,5.157602 -0.04937,0.728879 -0.19783,1.841895 -0.330378,2.476814 -0.01673,0.08013 -0.03754,0.185033 -0.04625,0.233112 -0.0087,0.04808 -0.03247,0.15298 -0.05279,0.233112 -0.02033,0.08013 -0.048,0.211258 -0.0615,0.29139 -0.0135,0.08013 -0.03924,0.185033 -0.0572,0.233112 -0.01796,0.04808 -0.04791,0.166092 -0.06654,0.262251 -0.04235,0.21849 -0.04228,0.218243 -0.169153,0.641058 -0.05771,0.192317 -0.113057,0.389005 -0.123001,0.437085 -0.0099,0.04808 -0.0202,0.08742 -0.02279,0.08742 -0.0045,0 -0.512955,1.452419 -0.55084,1.573505 -0.06829,0.21825 -0.860329,2.021737 -0.980335,2.232229 -0.06756,0.118495 -0.199184,0.359085 -0.292506,0.534644 -0.09332,0.175558 -0.190357,0.346021 -0.215636,0.378807 -0.02528,0.03278 -0.138644,0.230072 -0.251923,0.438416 -0.374707,0.68916 -1.686454,2.551656 -2.052688,2.914528 -0.08122,0.08048 -0.14768,0.160501 -0.14768,0.177829 0,0.09966 -1.866013,2.010764 -2.535093,2.596346 -0.256423,0.224423 -0.728475,0.615266 -1.049003,0.86854 -0.320529,0.253274 -0.591522,0.481237 -0.602206,0.506584 -0.01069,0.02535 -0.05029,0.04609 -0.08801,0.04609 -0.03772,0 -0.139293,0.06556 -0.225711,0.145695 -0.08642,0.08013 -0.184496,0.145695 -0.217948,0.145695 -0.03345,0 -0.06082,0.01982 -0.06082,0.04405 0,0.02423 -0.07375,0.0767 -0.163887,0.116595 -0.09014,0.0399 -0.215903,0.121004 -0.279479,0.180233 -0.06358,0.05923 -0.14062,0.118218 -0.171211,0.131087 -0.03059,0.01287 -0.274516,0.154522 -0.542055,0.314786 -0.74725,0.447627 -0.865269,0.512652 -1.553294,0.85582 -0.986981,0.492279 -1.218007,0.594355 -2.127147,0.939859 -0.759792,0.288746 -1.725407,0.605824 -2.447675,0.803741 -0.144238,0.03952 -0.288476,0.07918 -0.320529,0.08812 -0.03205,0.0089 -0.136953,0.03199 -0.233112,0.05121 -0.09616,0.01922 -0.279632,0.06269 -0.407719,0.09659 -0.254713,0.06742 -0.376401,0.09369 -0.641285,0.138443 -0.09616,0.01625 -0.240396,0.04265 -0.320529,0.05866 -0.488237,0.09758 -0.598327,0.113325 -1.573505,0.225064 -0.368608,0.04224 -1.311259,0.08215 -2.09478,0.08871 -0.783521,0.0066 -1.442046,0.02271 -1.463391,0.0359 -0.02134,0.01319 -0.04902,0.01512 -0.06151,0.0043 z m 3.50312,-13.881166 v -5.453726 l 0.561469,-1.087977 c 0.308808,-0.598388 0.685757,-1.324004 0.837665,-1.61248 0.151907,-0.288476 0.466205,-0.891653 0.698441,-1.340394 0.232236,-0.44874 0.606413,-1.16993 0.831505,-1.602644 0.225092,-0.432714 0.559266,-1.075229 0.742609,-1.427811 0.183344,-0.352582 0.576391,-1.113109 0.873438,-1.690061 0.297048,-0.576952 0.638443,-1.23258 0.758656,-1.45695 0.120214,-0.22437 0.461376,-0.879997 0.758138,-1.456949 0.475546,-0.924533 0.892728,-1.728231 2.359567,-4.545683 1.214583,-2.3329279 1.608011,-3.1354974 1.560397,-3.1831116 -0.03008,-0.03008 -1.196037,-0.04603 -2.729786,-0.037343 -2.104312,0.01192 -2.67416,0.030755 -2.662708,0.088013 0.008,0.040066 -0.0132,0.072847 -0.04715,0.072847 -0.03395,0 -0.04551,0.026225 -0.0257,0.058278 0.01981,0.032053 0.0082,0.058278 -0.0257,0.058278 -0.03394,0 -0.05527,0.019669 -0.04738,0.043709 0.0079,0.02404 -0.102723,0.2666218 -0.245797,0.5390713 -0.143075,0.2724496 -0.254427,0.5150317 -0.247451,0.5390714 0.007,0.02404 -0.01509,0.043709 -0.04903,0.043709 -0.03394,0 -0.04551,0.026225 -0.0257,0.058278 0.01981,0.03205 0.0067,0.05828 -0.02914,0.05828 -0.03584,0 -0.04895,0.02623 -0.02914,0.05828 0.01981,0.03205 0.0082,0.05828 -0.0257,0.05828 -0.03394,0 -0.05609,0.01967 -0.04921,0.04371 0.0069,0.02404 -1.183754,2.443304 -2.645851,5.376144 -2.595407,5.206159 -3.22218,6.500288 -3.367745,6.953554 -0.03929,0.122346 -0.08216,0.21172 -0.09528,0.198608 -0.01311,-0.01311 -0.112755,-0.270563 -0.22143,-0.572115 C 23.411857,21.896996 23.24522,21.479808 23.150229,21.271464 22.961298,20.857086 21.304152,17.383118 20.717757,16.172141 20.515983,15.755453 20.175087,15.047375 19.960209,14.598635 19.590982,13.82756 19.349683,13.326668 18.416094,11.393346 18.1994,10.944605 17.834545,10.184078 17.605305,9.7032844 17.376065,9.222491 17.151612,8.7635519 17.106521,8.6834196 l -0.08198,-0.1456949 -2.917582,-0.015109 c -1.60467,-0.00831 -2.917582,0.00625 -2.917582,0.032364 0,0.02611 0.133783,0.3082719 0.297297,0.6270274 0.163513,0.3187549 0.927864,1.8252459 1.698557,3.3477589 0.770694,1.522512 1.839704,3.633632 2.375579,4.691377 0.535875,1.057746 1.512058,2.98529 2.169295,4.283432 0.657236,1.298142 1.670463,3.299001 2.251614,4.446354 l 1.056637,2.086095 v 5.417195 5.417195 h 2.535093 2.535092 z"
     id="path6" />
</svg>
